<?xml version="1.0" encoding="UTF-8"?>
<svg id="uuid-e6ede8bb-dd9c-406c-83ed-f12faea4f89f" data-name="Layer 2" xmlns="http://www.w3.org/2000/svg" width="105.9" height="119.8" viewBox="0 0 105.9 119.8">
  <defs>
    <style>
      .uuid-99f41ecf-27c6-4874-a066-91b70273f0ba {
        fill: #fff;
      }

      .uuid-a193caed-19da-48f4-a9f0-70f96e018c9b {
        fill: none;
        stroke: #fff;
        stroke-linejoin: round;
        stroke-width: 7.5px;
      }
    </style>
  </defs>
  <g id="uuid-9cb341c8-a021-4702-a90f-12a5e56fccfc" data-name="Capa 1">
    <g>
      <path class="uuid-a193caed-19da-48f4-a9f0-70f96e018c9b" d="M91.2,81.9L64.4,5.8c-.9-2.5-4.2-2.8-5.6-.6-.8,1.2-1.6,2.4-2.6,3-2.6,1.5-7.3,0-9.5,1.8-2.3,1.9-1.7,6.8-3.6,9-1.9,2.3-7.4,2.1-8.4,4.9"/>
      <path class="uuid-99f41ecf-27c6-4874-a066-91b70273f0ba" d="M24.5,20.6c.8,0,1.6,.3,2.3,1L98.2,92.9c2,2,.8,5.3-2,5.6-1.5,.2-3,.4-4,1.1-2.6,1.8-3.2,7-6,8.3-.6,.3-1.2,.4-1.8,.4-2.3,0-5-1.2-7.2-1.2s-.8,0-1.2,.1c-3,.8-5.4,5.4-8.5,5.7,0,0-.2,0-.3,0-3,0-6.1-3.9-9.1-4.2-.1,0-.2,0-.3,0-2.7,0-5.9,2.6-8.7,2.6s-.6,0-1-.1c-3-.8-4.5-5.8-7.4-7.1-.8-.4-1.7-.5-2.7-.5s-2.8,.2-4.1,.2-2.5-.2-3.4-.8c-2.5-1.8-2.3-7-4.5-9.2-2.3-2.3-7.5-2-9.2-4.5-1.8-2.6,.2-7.4-1.1-10.2-1.3-2.9-6.3-4.4-7.1-7.4-.8-3,2.7-6.9,2.5-10-.3-3.1-4.4-6.3-4.2-9.4,.3-3.1,4.9-5.5,5.7-8.5,.8-3-2-7.4-.7-10.2,1.3-2.8,6.5-3.4,8.3-6,.7-1,1-2.5,1.1-4,.2-1.8,1.7-2.9,3.3-2.9m0-6.8c-5.1,0-9.4,3.8-10,8.9,0,.4,0,.6-.1,.8-.4,.2-.9,.5-1.3,.7-2.4,1.2-5.7,2.8-7.4,6.5-1.7,3.7-.8,7.3-.2,9.9,.1,.4,.2,1,.3,1.4-.3,.3-.7,.8-1,1.1C2.9,45.1,.4,47.8,0,51.8c-.4,4,1.7,7.1,3.2,9.3,.2,.4,.6,.8,.8,1.2-.2,.4-.4,.9-.6,1.3-1.1,2.5-2.6,5.9-1.5,9.8,1,3.9,4,6.1,6.2,7.7,.4,.3,.8,.6,1.2,.9,0,.4,0,1,0,1.4-.2,2.7-.4,6.4,1.9,9.7,2.3,3.3,5.8,4.3,8.4,5.1,.4,.1,1.1,.3,1.5,.5,.2,.4,.3,1,.5,1.5,.7,2.6,1.8,6.1,5.1,8.4,2.9,2,6.2,2,7.3,2s1.7,0,2.5-.1c.5,0,1,0,1.4,0,.3,.4,.6,.8,.9,1.2,1.6,2.2,3.8,5.1,7.7,6.2,.9,.2,1.8,.3,2.7,.3,2.8,0,5.2-1,7.1-1.9,.4-.2,.9-.4,1.3-.6,.4,.2,.9,.6,1.2,.8,2,1.4,4.8,3.2,8.5,3.2s.6,0,.9,0c4-.3,6.7-2.9,8.6-4.7,.3-.3,.7-.7,1.1-1,.4,0,1,.2,1.4,.3,1.5,.4,3.3,.8,5.2,.8s3.3-.3,4.7-1c3.6-1.7,5.3-5,6.5-7.4,.2-.4,.5-.9,.7-1.3,.2,0,.5,0,.8-.1,3.9-.4,7.1-3,8.4-6.7,1.3-3.7,.4-7.7-2.4-10.4L31.6,16.8c-1.9-1.9-4.4-2.9-7.1-2.9h0Z"/>
    </g>
  </g>
</svg>