<?xml version="1.0" encoding="UTF-8"?>
<svg id="uuid-2201d2da-7a0d-4890-96d8-cee83d08c1bc" data-name="Layer 2" xmlns="http://www.w3.org/2000/svg" width="105.7" height="122.8" viewBox="0 0 105.7 122.8">
  <defs>
    <style>
      .uuid-02b18c22-0d02-4426-aebe-52d4918501b1 {
        fill: #fff;
      }
    </style>
  </defs>
  <g id="uuid-184c3530-07ec-4456-85b3-f6771bb204af" data-name="Capa 1">
    <path class="uuid-02b18c22-0d02-4426-aebe-52d4918501b1" d="M47.8,107.5c-1.3,1.4-2.5,2.8-3.9,4.1-2.8,2.8-5.3,3.2-7.3,1.2-2.1-2-1.7-4.6,1.2-7.5,3.1-3.1,6.2-6.2,9.3-9.3,.6-.7,1.3-1.7,1.3-2.5,0-8,0-16.1,0-24.5-1.1,.6-2,1.1-2.8,1.6-5.6,3.2-11.3,6.4-16.8,9.8-1.1,.7-2,2-2.4,3.3-1.3,4.3-2.4,8.6-3.6,12.9-.9,3.1-3,4.5-5.6,3.9-2.5-.6-3.6-3-2.9-6.1,.5-2,1-4,1.7-6.6-3.1,1.8-5.7,3.3-8.4,4.8-2.8,1.6-5.4,1.1-6.7-1.2-1.3-2.3-.5-4.7,2.3-6.4,2.6-1.6,5.2-3.1,8.4-5-2.8-.8-5-1.4-7.1-2-2.7-.9-3.9-2.9-3.3-5.4,.6-2.4,2.8-3.6,5.6-2.9,4.6,1.1,9.2,2.5,13.8,3.6,1,.2,2.3,.2,3.1-.2,6.4-3.6,12.8-7.4,19.2-11.1,.2-.1,.3-.4,.7-.8-6.8-4-13.6-8-20.4-11.8-.6-.3-1.6-.2-2.3,0-4.5,1.2-9,2.4-13.5,3.6-3,.8-5.5-.4-6.1-3-.6-2.5,.8-4.6,3.7-5.5,2.1-.6,4.2-1.2,6.8-1.9-3.2-1.9-6.1-3.6-8.9-5.2-2.8-1.7-3.7-4-2.4-6.4,1.3-2.4,4-2.8,6.9-1.2,2.7,1.6,5.5,3.2,8.7,5-.6-2.5-1.2-4.5-1.7-6.6-.8-3.1,.3-5.4,2.8-6.2,2.5-.8,4.8,.8,5.7,4.1,1.2,4.4,2.3,8.8,3.6,13.2,.2,.8,.6,1.9,1.3,2.2,6.7,4,13.5,7.9,20.7,12.1,0-7-.2-13.6,0-20.1,.2-4-.8-6.9-3.9-9.5-2.7-2.3-5.1-5-7.6-7.5-2.1-2.2-2.2-4.7-.4-6.6,1.9-1.8,4.3-1.7,6.6,.4,.8,.7,1.6,1.5,2.3,2.3,.8,.8,1.5,1.6,2.2,2.5l.7-.2c0-2.3,0-4.6,0-6.8,0-1.2,0-2.4,0-3.6C48.6,1.9,50.3,0,52.8,0c2.5,0,4.3,1.8,4.4,4.6,0,3.4,0,6.9,.7,10.8,1.4-1.6,2.9-3.2,4.4-4.7,2.4-2.4,5-2.6,6.9-.7,1.9,1.9,1.6,4.5-.8,7-3.2,3.2-6.5,6.4-9.7,9.7-.6,.7-1.4,1.6-1.4,2.5-.1,7.9,0,15.8,0,24.1,.9-.4,1.6-.7,2.2-1,5.8-3.4,11.7-6.7,17.5-10.2,1-.6,1.9-1.9,2.3-3,1.3-4.4,2.4-8.8,3.6-13.2,.9-3,3.1-4.5,5.6-3.8,2.4,.7,3.5,3,2.8,5.9-.5,2.1-1,4.2-1.7,6.7,3.2-1.8,5.9-3.5,8.7-5,2.8-1.6,5.3-1.1,6.7,1.2,1.4,2.3,.6,4.7-2.2,6.4-2.7,1.6-5.5,3.2-8.8,5.2,2.4,.7,4.2,1.1,6.1,1.7,3.5,1,5.1,3.1,4.3,5.8-.7,2.6-3.1,3.6-6.5,2.7-4.3-1.1-8.6-2.4-13-3.4-.9-.2-2.2-.2-3,.3-6.7,3.8-13.3,7.7-20.3,11.7,.9,.6,1.6,1.1,2.4,1.5,5.7,3.3,11.4,6.6,17,10,1.6,1,3.1,1.1,4.9,.6,4.1-1.2,8.3-2.3,12.4-3.4,3.1-.8,5.5,.3,6.2,2.9,.7,2.6-.8,4.7-3.9,5.6-2,.6-4,1.1-6.5,1.8,3.2,1.9,6,3.5,8.8,5.2,2.8,1.7,3.7,4,2.4,6.4-1.3,2.4-3.9,2.8-6.9,1.1-2.7-1.5-5.3-3.1-8.6-5,.7,2.5,1.2,4.5,1.7,6.4,.8,3.3-.3,5.7-2.9,6.4-2.6,.7-4.7-.9-5.6-4.2-1.2-4.4-2.3-8.8-3.5-13.2-.2-.8-.7-1.8-1.4-2.2-6.6-4-13.3-7.9-20.3-11.9,0,1-.2,1.6-.2,2.3,0,7,0,14.1,0,21.1,0,1.2,.6,2.6,1.5,3.5,3.1,3.3,6.4,6.5,9.6,9.7,2.3,2.4,2.6,4.8,.7,6.8-1.9,2-4.5,1.9-6.9-.6-1.5-1.5-2.8-3.1-4.2-4.7l-.8,.4c0,3.2,0,6.5,0,9.7,0,3.4-1.8,5.4-4.5,5.3-2.6,0-4.2-2-4.3-5.3,0-3.2,0-6.4,0-9.6l-.7-.4Z"/>
  </g>
</svg>