<?xml version="1.0" encoding="UTF-8"?>
<svg id="uuid-d3871eb7-1069-4e76-8fe6-6d81866f1f1b" data-name="Layer 2" xmlns="http://www.w3.org/2000/svg" width="125.4" height="123.4" viewBox="0 0 125.4 123.4">
  <defs>
    <style>
      .uuid-a2c4fdb6-41e0-4cba-8430-4fe00f63bef4 {
        fill: #fff;
      }

      .uuid-37ad3b31-84e5-4e59-b664-75680a47f256 {
        fill: none;
        stroke: #fff;
        stroke-miterlimit: 10;
        stroke-width: 6.3px;
      }
    </style>
  </defs>
  <g id="uuid-3d2afc9c-860a-4e8e-8bfd-7820838a26d1" data-name="Capa 1">
    <g>
      <circle class="uuid-37ad3b31-84e5-4e59-b664-75680a47f256" cx="93.5" cy="31.4" r="12.2"/>
      <path class="uuid-a2c4fdb6-41e0-4cba-8430-4fe00f63bef4" d="M11.7,66.3c1.4,.8,1.8,2.1,1.8,3.7,0,10.4,0,25.9,0,36.3,0,1.2,.2,1.6,1.5,1.5,1.6-.1,3.3-.1,4.9,0,1.1,0,1.3-.3,1.3-1.4,0-9,0-18,0-27,0-2.9,.9-3.8,3.8-3.8,5.3,0,10.6,0,15.8,0,2.4,0,3.5,1,3.5,3.4,0,7.6,0,21.2,0,28.9,0,2.4-1.5,3.7-3.5,3.2-1.4-.4-2-1.3-2-3.1,0-6.3,0-18.6,0-24.9q0-1.8-1.9-1.8c-3,0-5.9,0-8.9,0-.8,0-1.2,0-1.1,1,0,8.2,0,16.3,0,24.5,0,.9,.3,1.1,1.1,1.1,20.8,0,41.7,0,62.5,0,.9,0,1.2-.2,1.2-1.2,0-3.4,0-6.8,0-10.2,0-2,1.1-3.2,2.7-3.2,1.7,0,2.8,1.2,2.8,3.2,0,3.4,0,6.8,0,10.2,0,.9,.2,1.3,1.2,1.2,1.5,0,3,0,4.5,0,1.9,0,2.9,1.1,2.9,3,0,3.2,0,6.4,0,9.6,0,1.9-1.1,3-3,3-14.3,0-28.7,0-43,0-1.7,0-2.9-1.1-2.9-2.6,0-1.5,1-1.6,2.7-1.8,.5,0,1,0,1.6,0,12.5,0,26.6,0,39.1,0,1.3,0,1.5-.4,1.5-1.6,0-3.1,0-4.9-3.1-4.9-29.9,0-63.3,0-93.2,0-1.3,0-1.8,.3-1.7,1.7,.1,2.9,0,4.8,2.9,4.8,13,0,42.7,0,55.7,0,.6,0,1.1,0,1.7,0,1.5,.2,2.5,.3,2.4,1.7,0,1.4-1.2,2.5-2.7,2.6-.4,0-.8,0-1.1,0-14.7,0-44.1,0-58.7,0-3,0-3.8-.8-3.8-3.8,0-2.9,0-5.8,0-8.6,0-2.3,1-3.3,3.3-3.3,1,0,2.1,0,3.1,0,1.2,.1,1.6-.2,1.6-1.5,0-10.3,0-25.6,0-35.9,0-.4,0-.9,0-1.3,.1-1.7,.9-2.5,2.6-2.8,.4-.5,.8-.6,1.2,0Z"/>
      <path class="uuid-a2c4fdb6-41e0-4cba-8430-4fe00f63bef4" d="M71.2,66c-2.2,0-3.9-1.1-5.2-2.8-.6-.9-1.2-1.7-1.9-2.7,.5,0,1,0,1.4-.1,1.6-.2,2.6-1.4,2.5-2.9,0-1.4-1.2-2.5-2.7-2.6-.4,0-.8,0-1.3,0-18.6,0-37.2,0-55.7,0h-1.6c.1-.5,.2-.7,.3-1,2.3-6.8,4.7-13.7,7-20.5,.3-1,.8-1.4,1.9-1.3,13.1,0,26.1,0,39.2,0,2.1,0,3.3-1,3.3-2.8,0-1.7-1.2-2.7-3.2-2.7-14.1,0-28.1,0-42.2,0-2,0-2.7,.5-3.3,2.4C6.6,38,3.5,47.1,.4,56.1c-.2,.6-.4,1.2-.4,1.9,.3,5.8,3.9,10.7,9.3,12.6,.4,.2,.9,.1,1.2,.6,.4-.2,.8-.3,1.2,0,4.3,.5,8-.9,11-3.9,.7-.6,.9-.3,1.4,.1,5.8,5.3,12.4,5.2,17.9-.4,.8-.8,1-.6,1.7,0,5.4,5.4,12.1,5.6,17.7,.5,.7-.6,1-.7,1.6,0,2,2.1,4.5,3.5,7.5,3.8,2,.2,3.4-.9,3.5-2.6,.1-1.7-1.1-2.9-3.1-3Zm-58-.2c-3.2-.3-5.1-2.3-6.4-5.3h15c-1.9,3.3-4.5,5.6-8.6,5.3Zm21.7-.2c-4.5,1-7.5-1.2-9.8-5.1h15.6c-1.2,2.7-3.1,4.5-5.8,5.1Zm16.6,0c-3-.5-5-2.3-6.3-5.1h15.6c-2.1,3.6-5,5.9-9.3,5.1Z"/>
      <path class="uuid-a2c4fdb6-41e0-4cba-8430-4fe00f63bef4" d="M94.4,81.8c4-5.3,12.9-18.1,16.5-23.6,.7-1.1,1.6-1.9,3-1.8,2.2,.2,3.2,2.6,1.9,4.5-2.2,3.3-9.5,14.2-11.8,17.4-2.3,3.2-4.7,6.4-7.1,9.5-1.4,1.8-3.4,1.9-4.8,.2-7.4-9.7-14.9-19.2-21.1-29.7-3.8-6.4-7.1-13-8.7-20.3-3.6-16.6,6.9-33.3,23.4-37.2,18-4.2,35.4,6.8,39,25,1.4,6.7,.2,13.3-1.9,19.7-1.8,5.5-4.4,10.6-7.3,15.5-.9,1.6-2.5,2.1-3.9,1.3-1.4-.8-1.8-2.4-.8-4,3-5.4,5.8-10.9,7.5-16.8,2.3-8,2.2-15.7-2.1-23.1-5.7-9.6-17.1-14.7-28-12.4-11.2,2.4-19.5,11.2-20.9,22.4-.7,5.6,.8,10.8,2.9,15.9,3.4,8.2,8.1,15.7,13.3,22.9,3.4,4.7,7,9.3,10.4,13.9,.1,.2,.3,.4,.5,.6Z"/>
      <path class="uuid-a2c4fdb6-41e0-4cba-8430-4fe00f63bef4" d="M65.1,102.1c-4.2,0-8.4,0-12.6,0-2.5,0-3.5-1-3.5-3.5,0-6.5,0-13,0-19.5,0-2.4,1-3.3,3.4-3.3,1,0,2.1,0,3.1,0,1.7,0,2.8,1.2,2.8,2.8,0,1.5-1,2.7-2.6,2.7-.9,0-1.1,.3-1.1,1.2,0,4.3,0,8.7,0,13,0,.8,.1,1.1,1.1,1.1,6.4,0,12.7,0,19.1,0,.9,0,1.1-.3,1.1-1.1,0-4.3,0-8.7,0-13,0-1-.3-1.2-1.2-1.2-3.6,0-16.2,0-19.8,0-2,0-3.2-1-3.2-2.7,0-1.7,1.2-2.8,3.2-2.8,4.8,0,18.6,0,23.4,0,2.2,0,3.2,1,3.2,3.2,0,6.6,0,13.2,0,19.8,0,2.3-1.1,3.3-3.4,3.3-4.2,0-8.5,0-12.7,0Z"/>
    </g>
  </g>
</svg>