<?xml version="1.0" encoding="UTF-8"?>
<svg id="uuid-abef098b-defe-4ade-bfd6-f1c6c40617b5" data-name="Layer 2" xmlns="http://www.w3.org/2000/svg" width="133.7" height="220.3" viewBox="0 0 133.7 220.3">
  <defs>
    <style>
      .uuid-f7ac4b89-8eb0-4896-bc6e-33b9e6f79e68 {
        fill: #1c1c1c;
      }
    </style>
  </defs>
  <g id="uuid-b77e149d-a2fc-4cba-b79f-da41c411ebba" data-name="Capa 1">
    <g>
      <path class="uuid-f7ac4b89-8eb0-4896-bc6e-33b9e6f79e68" d="M123.6,8.2h1.7c.8,0,1.1-.3,1.1-1s-.4-1-1.1-1h-1.7v2Zm3.1,1.9l2.5,3.3h-2.7l-2.1-3.2h-.6v3.2h-2.4V4h4.2c1.1,0,2,.3,2.6,.8,.6,.5,.9,1.3,.9,2.3,0,1.6-.7,2.6-2.2,2.9m1.7,4.9c1-.6,1.9-1.5,2.5-2.6,.6-1.1,.9-2.2,.9-3.5s-.3-2.5-.9-3.5c-.6-1.1-1.4-1.9-2.5-2.6-1-.6-2.2-.9-3.5-.9s-2.5,.3-3.5,.9c-1,.6-1.9,1.5-2.5,2.6-.6,1.1-.9,2.3-.9,3.5s.3,2.5,.9,3.5c.6,1.1,1.4,1.9,2.5,2.5,1.1,.6,2.2,.9,3.5,.9s2.5-.3,3.5-.9m.9-13.7c1.3,.8,2.4,1.8,3.2,3.2,.8,1.4,1.2,2.8,1.2,4.5s-.4,3.1-1.2,4.4c-.8,1.3-1.8,2.4-3.2,3.2-1.3,.8-2.8,1.2-4.4,1.2s-3.1-.4-4.5-1.2c-1.4-.8-2.4-1.8-3.2-3.2-.8-1.3-1.2-2.8-1.2-4.4s.4-3.1,1.2-4.5c.8-1.4,1.9-2.4,3.2-3.2,1.3-.8,2.8-1.2,4.5-1.2s3.1,.4,4.4,1.2"/>
      <path class="uuid-f7ac4b89-8eb0-4896-bc6e-33b9e6f79e68" d="M90.3,85.2v36.9c0,1-.3,3.7-.7,8.2-.1,1.2-.7,1.8-1.8,1.9-1.5,0-3.1,0-4.7,0-1,0-1.6-.6-1.6-1.7,0-.6-.2-1.8-.5-3.8-.2-1.6-.3-2.8-.3-3.8v-14.3c0-9.6,0-23.3,0-23.9,0-1.8,.2-2.8,.5-3.2,.4-.4,1.5-.5,3.3-.5,1.6,0,2.8,0,3.5,0,.8,0,1.3,.3,1.5,.6,.3,.3,.5,.9,.6,1.7v1.9Zm0,56.5v2.8c0,1-.6,1.6-1.5,1.7-2.1,.2-4.3,.2-6.3,0-.8-.1-1.3-.6-1.4-1.5-.2-2.1-.3-4.2,0-6.3,0-1,.7-1.5,1.7-1.6,2,0,4,0,6,0,1,0,1.5,.6,1.6,1.6v3.2Zm-16-45.8c0,.7,0,1.6,0,2.9s0,2.3,0,2.9c0,1.5-.8,2.3-2.2,2.4-2.1,0-4.3,0-6.6,0-1.2,0-1.9-.8-2-2.1,0,.3,0-1.1-.1-4.4,0-1.6-.5-2.9-1.4-4-1.2-1.4-2.6-2-4.2-1.8-1.6,.2-2.8,1.2-3.5,2.9-.7,1.6-1,3.5-1,5.7v26.3c0,2,.2,3.8,.7,5.4,.7,2.3,2.1,3.5,4.1,3.6,2,0,3.5-.9,4.6-2.9,.2-.3,.2-.5,.3-.7,.7-3.6,.7-7.1,0-10.5-.2-1.1-1-1.8-2.4-1.9-1.5-.2-2.2-1.1-2.2-2.8,0-3.3,0-5.2,0-5.8,0-1.4,.9-2.2,2.3-2.3,.9,0,3,0,6.2,0s4.3,0,5.1,0c.8,0,1.3,.3,1.7,.6,.3,.3,.5,.9,.6,1.7,0,.5,0,1.3,0,2.5v18.3c0,5-1.9,9.1-5.7,12.1-3.7,3.1-8,4.1-13,3.2-5.6-1.1-9.6-4.4-12-10.1-.5-1.1-.7-2.8-.7-5,0-3.5,0-9.7,0-18.6v-17.5c0-3.6,1-6.6,3-9.2,3.1-4,6.9-5.9,11.2-5.9,.4,0,.9,0,1.6,0h1.6c4.4,0,8,2,10.9,5.7,2.3,3,3.3,6.1,3.1,9.5M109.1,14.3c0-5.5-6.3-8.5-10.6-5.1-2.4,1.9-4.7,3.6-7.2,4-6.2,1.1-14.3-5.2-20.1-3.2-5.9,2.1-8,12.2-13.3,15.3-5.4,3.1-15.2,0-19.9,3.9-4.7,4-3.3,14.2-7.3,18.9-4,4.7-14.3,5.1-17.4,10.5-3.1,5.3,1.7,14.4-.4,20.3-2.1,5.8-11.7,9.6-12.7,15.8-1.1,6,6.6,12.9,6.6,19.2S-1,127.2,0,133.2c1.1,6.2,10.6,10,12.7,15.8,2.1,5.9-2.7,15,.4,20.3,3.1,5.4,13.4,5.7,17.4,10.5,4,4.7,2.6,15,7.3,18.9,4.7,4,14.5,.8,19.9,3.9,5.3,3.1,7.5,13.2,13.3,15.3,5.8,2.1,13.9-4.2,20.1-3.2,2.5,.4,4.8,2.1,7.2,4,4.3,3.4,10.6,.4,10.6-5.1V14.3Z"/>
    </g>
  </g>
</svg>