<?xml version="1.0" encoding="UTF-8"?>
<svg id="uuid-241437c0-7f3c-4c48-b439-4b3d770748c1" data-name="Layer 2" xmlns="http://www.w3.org/2000/svg" width="476.2" height="603.3" viewBox="0 0 476.2 603.3">
  <defs>
    <style>
      .uuid-647185f8-5f09-4e47-93c3-dd0401e52fe7 {
        fill: #fff;
      }

      .uuid-0c45bbfb-ba24-4a82-bb28-6981c56eb757 {
        stroke-width: .5px;
      }

      .uuid-0c45bbfb-ba24-4a82-bb28-6981c56eb757, .uuid-18f23bfa-6ea4-43f6-8a88-5371b64a926a, .uuid-070e77eb-c482-43fc-ac9d-d947328b66fb, .uuid-2a64606b-65d8-4185-8f15-82274cbcee64, .uuid-f145b040-a390-4bde-a9e5-ae6e674cb0c1 {
        fill: none;
      }

      .uuid-0c45bbfb-ba24-4a82-bb28-6981c56eb757, .uuid-070e77eb-c482-43fc-ac9d-d947328b66fb, .uuid-2a64606b-65d8-4185-8f15-82274cbcee64, .uuid-f145b040-a390-4bde-a9e5-ae6e674cb0c1 {
        stroke: #fff;
        stroke-linecap: round;
        stroke-linejoin: round;
      }

      .uuid-18f23bfa-6ea4-43f6-8a88-5371b64a926a {
        stroke: #969695;
        stroke-width: .5px;
      }

      .uuid-d7dd72f7-dc42-44cf-a60b-69bdea55724d {
        fill: #242424;
      }

      .uuid-070e77eb-c482-43fc-ac9d-d947328b66fb {
        stroke-width: .8px;
      }

      .uuid-0f0ec599-5a47-4587-aa79-11f9622af5a1 {
        fill: #cdcdcd;
      }

      .uuid-2a64606b-65d8-4185-8f15-82274cbcee64 {
        stroke-width: .8px;
      }

      .uuid-f145b040-a390-4bde-a9e5-ae6e674cb0c1 {
        stroke-width: .3px;
      }

      .uuid-19ffc513-bed9-4d45-9cb0-b0e8b9af4af1 {
        fill: #1d1d1b;
      }
    </style>
  </defs>
  <g id="uuid-8be7bdaf-5e62-4d23-b5ca-97c0dd0ea2f2" data-name="Capa 1">
    <g>
      <polygon class="uuid-d7dd72f7-dc42-44cf-a60b-69bdea55724d" points="271.9 561.4 271.5 562 271.5 563.1 272.1 562.7 272.6 562.4 271.9 561.4"/>
      <polygon class="uuid-0c45bbfb-ba24-4a82-bb28-6981c56eb757" points="271.9 561.4 271.5 562 271.5 563.1 272.1 562.7 272.6 562.4 271.9 561.4"/>
      <polygon class="uuid-d7dd72f7-dc42-44cf-a60b-69bdea55724d" points="276.4 556.8 275.9 558.3 276.1 559.2 277.1 558.2 276.4 556.8"/>
      <polygon class="uuid-0c45bbfb-ba24-4a82-bb28-6981c56eb757" points="276.4 556.8 275.9 558.3 276.1 559.2 277.1 558.2 276.4 556.8"/>
      <polygon class="uuid-d7dd72f7-dc42-44cf-a60b-69bdea55724d" points="275.3 563.1 275.2 564.3 274.8 564.7 274.8 565.7 274.8 566.5 274.4 567.2 274 566.9 273.9 567.5 274.5 568 275 567.2 275.6 566.4 275.4 565.6 275.2 565.1 275.8 565.1 276.2 564.5 275.7 564.4 275.8 564 276.4 564.5 276.5 562.9 275.9 563.6 275.3 563.1"/>
      <polygon class="uuid-0c45bbfb-ba24-4a82-bb28-6981c56eb757" points="275.3 563.1 275.2 564.3 274.8 564.7 274.8 565.7 274.8 566.5 274.4 567.2 274 566.9 273.9 567.5 274.5 568 275 567.2 275.6 566.4 275.4 565.6 275.2 565.1 275.8 565.1 276.2 564.5 275.7 564.4 275.8 564 276.4 564.5 276.5 562.9 275.9 563.6 275.3 563.1"/>
      <g>
        <path class="uuid-d7dd72f7-dc42-44cf-a60b-69bdea55724d" d="M272.8,280.4h-9.9l.2-2.2-.8-1.3v-1.1l.8-1.8-.2-1.5-5.7-3-.3-1.1v-2.8c-4.9-.4-9.9-.8-14.6-1.5l-.8-.4-.2-1.7-2.1-.4-1.4,.5h-2.2l-2.6-1.3h-1.9l-1.2,.4-1.3-1.3-3.5-.9-8.9,.2-6.7,1-2.2,.6,.5,2.7,1.7,5.2-.5,2.6-5.2,4.3-5.1,1-9,23.8,.8,26,5,1.1,4.2,3.4,2.6,3.5,1.3,4.4,4.1-.4,.7,.5v2.4l.8,.5,.3,1.7-.9,1.9-.2,2.2,.2,3-.7,2-.3,2.3-.7,2.6v2.1l-1.2,1.8-1.7,.9,.9,12.2c.6,11.6,1.2,24.6,1.7,37,13.8-.5,27.9-1,39.8-1.8l-.2-17.2,11.4,.2,15.4-26.8,3.2-4.5,4.2-4.2,.9-2.6,.3-2.1-1-3.4-1-4.7-.7-3-1.4-2.9-2.1-3.7-1.7-2.9-1.5-2-.3-1.8,.3-1.2,1.8-2.5,.2-1.8-1.2-2.6-.3-1.2,.5-2.4,3-8.8,4.4-13.8,.5-1.2-8.6-12Z"/>
        <path class="uuid-070e77eb-c482-43fc-ac9d-d947328b66fb" d="M272.8,280.4h-9.9l.2-2.2-.8-1.3v-1.1l.8-1.8-.2-1.5-5.7-3-.3-1.1v-2.8c-4.9-.4-9.9-.8-14.6-1.5l-.8-.4-.2-1.7-2.1-.4-1.4,.5h-2.2l-2.6-1.3h-1.9l-1.2,.4-1.3-1.3-3.5-.9-8.9,.2-6.7,1-2.2,.6,.5,2.7,1.7,5.2-.5,2.6-5.2,4.3-5.1,1-9,23.8,.8,26,5,1.1,4.2,3.4,2.6,3.5,1.3,4.4,4.1-.4,.7,.5v2.4l.8,.5,.3,1.7-.9,1.9-.2,2.2,.2,3-.7,2-.3,2.3-.7,2.6v2.1l-1.2,1.8-1.7,.9,.9,12.2c.6,11.6,1.2,24.6,1.7,37,13.8-.5,27.9-1,39.8-1.8l-.2-17.2,11.4,.2,15.4-26.8,3.2-4.5,4.2-4.2,.9-2.6,.3-2.1-1-3.4-1-4.7-.7-3-1.4-2.9-2.1-3.7-1.7-2.9-1.5-2-.3-1.8,.3-1.2,1.8-2.5,.2-1.8-1.2-2.6-.3-1.2,.5-2.4,3-8.8,4.4-13.8,.5-1.2-8.6-12Z"/>
        <path class="uuid-d7dd72f7-dc42-44cf-a60b-69bdea55724d" d="M257.3,393h25.5l18.7-23.3c1.5-1.8,3.6-.8,5.5-.2,1.3,.8,2.5,1.2,3.3-.8l3.5-4.8,1.9-2.8-4.7-4-3.5-4.2-2-5.4-.2-3.9s-.5-1.2-.5-1.5c0-.3,0-5.1,0-5.1,0,0,0-2,.4-2.5,.4-.6,1.2-4.2,1.3-4.7,.1-.5-.6-3.9-.6-3.9l.4-3.7,5.9-5.9,5.4-2.9,3.3-4.5,5.3-11.2,5.1-9.6v-3.9l-.9-5.9,1.1-5.9v-3.1l-1.3-2.6,1.3-4.7,.8-7.3s1.5-3.2,1.7-3.6c.2-.4,4.3-2.4,4.3-2.4l3.3-3.7s1.2-3,1.2-4.2,.4-4.3,.5-4.9c0-.6,1.1-2.5,1.1-2.5v-6.6l1.1-4.3,1.5-2.9,1.7-1.6,.8-.8v-.4l-66.3-.4-.9,8.7-1.3,9.6-1.4,8.7-3.1,20.8-3.4,16.7,8.2,11.4-.6,2-7,22.1c-.5,1.8-.6,3.6,.3,5.4,1,1.7-.1,2.8-.8,3.9-1,1.3-1.2,2.6-.9,4.1l7,11.1v1.7l.3,1.8,.7,2.3s.5,1.6,.5,2c0,.4,.9,3,.9,3v2.3l-.7,2.1-.5,1.4-5.1,4.9-2.5,3.6-2.3,4.3-4.3,6.8-9.2,16.1Z"/>
        <path class="uuid-070e77eb-c482-43fc-ac9d-d947328b66fb" d="M257.3,393h25.5l18.7-23.3c1.5-1.8,3.6-.8,5.5-.2,1.3,.8,2.5,1.2,3.3-.8l3.5-4.8,1.9-2.8-4.7-4-3.5-4.2-2-5.4-.2-3.9s-.5-1.2-.5-1.5c0-.3,0-5.1,0-5.1,0,0,0-2,.4-2.5,.4-.6,1.2-4.2,1.3-4.7,.1-.5-.6-3.9-.6-3.9l.4-3.7,5.9-5.9,5.4-2.9,3.3-4.5,5.3-11.2,5.1-9.6v-3.9l-.9-5.9,1.1-5.9v-3.1l-1.3-2.6,1.3-4.7,.8-7.3s1.5-3.2,1.7-3.6c.2-.4,4.3-2.4,4.3-2.4l3.3-3.7s1.2-3,1.2-4.2,.4-4.3,.5-4.9c0-.6,1.1-2.5,1.1-2.5v-6.6l1.1-4.3,1.5-2.9,1.7-1.6,.8-.8v-.4l-66.3-.4-.9,8.7-1.3,9.6-1.4,8.7-3.1,20.8-3.4,16.7,8.2,11.4-.6,2-7,22.1c-.5,1.8-.6,3.6,.3,5.4,1,1.7-.1,2.8-.8,3.9-1,1.3-1.2,2.6-.9,4.1l7,11.1v1.7l.3,1.8,.7,2.3s.5,1.6,.5,2c0,.4,.9,3,.9,3v2.3l-.7,2.1-.5,1.4-5.1,4.9-2.5,3.6-2.3,4.3-4.3,6.8-9.2,16.1Z"/>
        <path class="uuid-0f0ec599-5a47-4587-aa79-11f9622af5a1" d="M283.1,216.1l66.5,.4,.9-2.5v-3.7l.2-4.7-.7-2.2s.9-3.5,1-4c0-.5,4.5-2.8,4.5-2.8,.1-.7,.2-1.6,.3-2.5-.7-2.1-.4-2.8,.8-4.5,1-.7,2.3-.9,2-3.2l2.7-1.8-1.6-2.1-1.7-1.9c-1.5,0-2.7-2-4.1-3.3,0,0-3.6-3.9-3.8-4.2-.2-.4-3.7-3.3-3.7-3.3l-5.2-1.8-2.2-.4c-1.7-.6-2.8-2.5-4.1-4.2-2.2-2.2-4-.3-5.6-2,.2-.9,.4-1.8,.2-3.2l-2.1-2.1-.8-2.8-3.6-2.7-5.5-3.3-.2-3-1.7-1.4-1.7-1.8-1.2-1.4h-1.2l-1-2.8-4.2-3-6.6-3.4-1.9-3.1-3.6-2.1c-.2-3.6-2-3.9-3.5-4.8h-2.6l-6.6-6.2c-3.1,0,.7-2.7-2.7-3.5,.1,1-4-1-4.6-1.8-1.4-1.2-4.2-.9-6.4-1.2l.2,7.1-25.8,35.9h40.7l.2,65.4Z"/>
        <path class="uuid-070e77eb-c482-43fc-ac9d-d947328b66fb" d="M283.1,216.1l66.5,.4,.9-2.5v-3.7l.2-4.7-.7-2.2s.9-3.5,1-4c0-.5,4.5-2.8,4.5-2.8,.1-.7,.2-1.6,.3-2.5-.7-2.1-.4-2.8,.8-4.5,1-.7,2.3-.9,2-3.2l2.7-1.8-1.6-2.1-1.7-1.9c-1.5,0-2.7-2-4.1-3.3,0,0-3.6-3.9-3.8-4.2-.2-.4-3.7-3.3-3.7-3.3l-5.2-1.8-2.2-.4c-1.7-.6-2.8-2.5-4.1-4.2-2.2-2.2-4-.3-5.6-2,.2-.9,.4-1.8,.2-3.2l-2.1-2.1-.8-2.8-3.6-2.7-5.5-3.3-.2-3-1.7-1.4-1.7-1.8-1.2-1.4h-1.2l-1-2.8-4.2-3-6.6-3.4-1.9-3.1-3.6-2.1c-.2-3.6-2-3.9-3.5-4.8h-2.6l-6.6-6.2c-3.1,0,.7-2.7-2.7-3.5,.1,1-4-1-4.6-1.8-1.4-1.2-4.2-.9-6.4-1.2l.2,7.1-25.8,35.9h40.7l.2,65.4Z"/>
        <path class="uuid-d7dd72f7-dc42-44cf-a60b-69bdea55724d" d="M171,43.8c-1.8-1.1-3.6,.2-3.6,.2l-.2,4.7,.2,2.3c2.4,1.7,1.2,2.8-1.2,3.9l-2.2,.7c-1.5-.1-2.1,.7-2.8,1.5l-.6,1.7c.2,2.2-.7,2.2-1.4,2.9-1.4,.6-3.2,.8-3.4,2.2l-1.3,2.2-2.7,2.3-2.2,1.7-1.3,2.5,1.7,3.1c2.3,2,3.7,3.8,3.3,5.4l-.3,5-.7,4.9-2,5.2-1.2,4.7,3.5,1.5,2.9,2.9,3.7,2.8,2.1,3,2.6,1c1.8-.3,3.5-.3,5.3-1.2l1.4-1.2v-2.3l-.6-2.4v-5l-.6-4.4-.7-.8c-.4-.5,.7-6.7,1.8-6l7.6,4.7-.6,2.9-.3,4.3,1.2,3.2c4.1,0,4.1,2.5,5.5,4l2,4,2.1,5.3c2.6,.9,5.1,1.6,7.8,1.9h2.8l3.4,2.6c.5,.8,1.8,.8,3.1,.9,1.9-1.6,1.4-3.9,3.2-3.1,4.6,1.6,4.4,2.1,5.7-1.3h2.5l1.7-2.6c2.1-.6,3-2.5,4.3-4l1.4-2.5-.2-17.3h-6l-2.7,2.8s-1-1.3-1.2-1.8c-.2-.4-1.2-1.3-1.2-1.3-1.3-1.1-2.8-1-4.6,0l-2.4-.3-1.2-1.3-1.4-1.8-1.4-2-.5-1.1v-1.4c2.1-3.1,1-6.7-1.5-6.5-1.4,.1-2.3-.3-2.8-1.9l-1.2-2.5-1.2-2.7c.5-.6-.3-1.2-1.1-1.8-1.4-1.7-.4-2.3-.5-3.4l1.7-3.9,.4-3.4c.8-1.6,3.1-3,1.5-4.8h-2.3c-1.4-1.4-2.8-.6-4.1-.4l-1.2,.6-4.4-.5h-2.2c-1.4-3-3.4-2.8-5.5-2.5h-1.9c0-2.8-1.5-4.3-3.6-5.5"/>
        <path class="uuid-070e77eb-c482-43fc-ac9d-d947328b66fb" d="M171,43.8c-1.8-1.1-3.6,.2-3.6,.2l-.2,4.7,.2,2.3c2.4,1.7,1.2,2.8-1.2,3.9l-2.2,.7c-1.5-.1-2.1,.7-2.8,1.5l-.6,1.7c.2,2.2-.7,2.2-1.4,2.9-1.4,.6-3.2,.8-3.4,2.2l-1.3,2.2-2.7,2.3-2.2,1.7-1.3,2.5,1.7,3.1c2.3,2,3.7,3.8,3.3,5.4l-.3,5-.7,4.9-2,5.2-1.2,4.7,3.5,1.5,2.9,2.9,3.7,2.8,2.1,3,2.6,1c1.8-.3,3.5-.3,5.3-1.2l1.4-1.2v-2.3l-.6-2.4v-5l-.6-4.4-.7-.8c-.4-.5,.7-6.7,1.8-6l7.6,4.7-.6,2.9-.3,4.3,1.2,3.2c4.1,0,4.1,2.5,5.5,4l2,4,2.1,5.3c2.6,.9,5.1,1.6,7.8,1.9h2.8l3.4,2.6c.5,.8,1.8,.8,3.1,.9,1.9-1.6,1.4-3.9,3.2-3.1,4.6,1.6,4.4,2.1,5.7-1.3h2.5l1.7-2.6c2.1-.6,3-2.5,4.3-4l1.4-2.5-.2-17.3h-6l-2.7,2.8s-1-1.3-1.2-1.8c-.2-.4-1.2-1.3-1.2-1.3-1.3-1.1-2.8-1-4.6,0l-2.4-.3-1.2-1.3-1.4-1.8-1.4-2-.5-1.1v-1.4c2.1-3.1,1-6.7-1.5-6.5-1.4,.1-2.3-.3-2.8-1.9l-1.2-2.5-1.2-2.7c.5-.6-.3-1.2-1.1-1.8-1.4-1.7-.4-2.3-.5-3.4l1.7-3.9,.4-3.4c.8-1.6,3.1-3,1.5-4.8h-2.3c-1.4-1.4-2.8-.6-4.1-.4l-1.2,.6-4.4-.5h-2.2c-1.4-3-3.4-2.8-5.5-2.5h-1.9c0-2.8-1.5-4.3-3.6-5.5Z"/>
        <path class="uuid-d7dd72f7-dc42-44cf-a60b-69bdea55724d" d="M120.2,140.6l1.5-1.6,.3-.7-2.9-3.6-2.2-4,.7-2.9,4.4-4.7-.3-2.5,.9-1,4.6-2.7,16.6-8.1,3.7-1.8,1.4-5.9,3.1,.6,3.1,3.4,4.2,3.4,1.6,2.1,2.1,1.5,3.7-.4,3.8-1.9-.6-9.5-.7-5.1c-.7-2.4-.1-3.8,.2-5.5l1.5-.4c2.7,1.3,4.7,2.1,6.5,3.7l.5,2.7-.3,4.8,.3,2.7,.8,.6c1.6-.3,2.7,0,3.2,1.1l2.7,4.2,3,6c.4,1.8,2,2.8,4.9,3.2l4.4,.5,2.3,.4,3.3,2.9,2.8,.5,.7-2.1,1.1-1.3,2.4,.3,1.5,1.1h1.2l1.6-1.8,2.6-1,1.2-1.9,1.6-.9,2.4-2.9,2.3-3-.2-17.1-2-.4h-3.1l-1.2,.2-1.6,2.4-1.2,.3s-1-1.9-1.2-2.4c-.2-.4-2.1-1.2-2.1-1.2l-3,.5-2.4,.4-1.1-1.5-1.9-2.4-1.7-2.1-.5-2.3,1.2-2.5-.2-2.7-1.6-1.5-2.1-.3-1.7-2.4-.4-1.6-1.5-2v-1.7l-1-1c-1.5-.7-1.2-1.9-1.2-3l1.8-3.3,.6-1.8c-.9-3.3,1.6-4.7,1.7-7.5l3.6-1.1,3.2,.7,2.2,1.6,2.7,.6,2.2,1.6,2.1,2.4,.6,1.9,1.4,2.2c-.6,2.3,.3,5.3,2.8,9l1.7-3.3s.6-3.7,.5-4c0-.4,0-3,0-3l3.6-4.6,2.7-6.2,6.9,.3,1.9,2.6,2.2-3.7,16.8,1.2,1.1,1.8,2.9,2.3c2.1,1.9,4.2,4.1,6.3,6.8,1.3,0,3-.4,3.6,.5v2.6l.2,50.8-27.7,39-6.5-1.1-7.4-.3c.1,2.4-1.7,2.1-3.8,1.5-1-.4-2.1-.6-2.9,.4,0,0-.2,2.6-.2,3.3s-.2,2-.2,2c-.8,.7-1.7,1.5-1.2,2.6-1.3,1.5-.9,4.6-2.6,6.2-.5,0-4.6-.4-4.6-.4l-2.6-.4-2,1.2c-1.3-1-2.7-.8-4-.9l-4.2-1.1-.9-.8c-2.1-3.7-2.6-1.8-3.8-1.2-.9,.9-2,.5-3.1,0l-2.6-1-.6,1.3,1,2.7v2.4l-1.5,1.2-2.2-1.1-4.2-2.1-1.9-.3-2.1-1.9c-1.4,0-2.1,.8-2.9,1.6,0,0-.9,2.7-1,3.2-.5,1.2-1.5,2.9-2.6,2.1-.9-.5-2.5-4.5-2.5-4.5-3.5-6.9-1.9-4.7-6-8.3-1.1-1.1-.9-4.5-.9-4.5,0,0,0-1.6,.6-2.1,.6-.5,3.6-.3,3.6-.3,0,0,1.7,.7,2.2-1.3,.6-2,.2-9.1,.2-9.1l-9.6-.5-13.5,.4-7.5,.6-6.5-1.1-4.4-.8-4.9-1.2Z"/>
        <path class="uuid-070e77eb-c482-43fc-ac9d-d947328b66fb" d="M120.2,140.6l1.5-1.6,.3-.7-2.9-3.6-2.2-4,.7-2.9,4.4-4.7-.3-2.5,.9-1,4.6-2.7,16.6-8.1,3.7-1.8,1.4-5.9,3.1,.6,3.1,3.4,4.2,3.4,1.6,2.1,2.1,1.5,3.7-.4,3.8-1.9-.6-9.5-.7-5.1c-.7-2.4-.1-3.8,.2-5.5l1.5-.4c2.7,1.3,4.7,2.1,6.5,3.7l.5,2.7-.3,4.8,.3,2.7,.8,.6c1.6-.3,2.7,0,3.2,1.1l2.7,4.2,3,6c.4,1.8,2,2.8,4.9,3.2l4.4,.5,2.3,.4,3.3,2.9,2.8,.5,.7-2.1,1.1-1.3,2.4,.3,1.5,1.1h1.2l1.6-1.8,2.6-1,1.2-1.9,1.6-.9,2.4-2.9,2.3-3-.2-17.1-2-.4h-3.1l-1.2,.2-1.6,2.4-1.2,.3s-1-1.9-1.2-2.4c-.2-.4-2.1-1.2-2.1-1.2l-3,.5-2.4,.4-1.1-1.5-1.9-2.4-1.7-2.1-.5-2.3,1.2-2.5-.2-2.7-1.6-1.5-2.1-.3-1.7-2.4-.4-1.6-1.5-2v-1.7l-1-1c-1.5-.7-1.2-1.9-1.2-3l1.8-3.3,.6-1.8c-.9-3.3,1.6-4.7,1.7-7.5l3.6-1.1,3.2,.7,2.2,1.6,2.7,.6,2.2,1.6,2.1,2.4,.6,1.9,1.4,2.2c-.6,2.3,.3,5.3,2.8,9l1.7-3.3s.6-3.7,.5-4c0-.4,0-3,0-3l3.6-4.6,2.7-6.2,6.9,.3,1.9,2.6,2.2-3.7,16.8,1.2,1.1,1.8,2.9,2.3c2.1,1.9,4.2,4.1,6.3,6.8,1.3,0,3-.4,3.6,.5v2.6l.2,50.8-27.7,39-6.5-1.1-7.4-.3c.1,2.4-1.7,2.1-3.8,1.5-1-.4-2.1-.6-2.9,.4,0,0-.2,2.6-.2,3.3s-.2,2-.2,2c-.8,.7-1.7,1.5-1.2,2.6-1.3,1.5-.9,4.6-2.6,6.2-.5,0-4.6-.4-4.6-.4l-2.6-.4-2,1.2c-1.3-1-2.7-.8-4-.9l-4.2-1.1-.9-.8c-2.1-3.7-2.6-1.8-3.8-1.2-.9,.9-2,.5-3.1,0l-2.6-1-.6,1.3,1,2.7v2.4l-1.5,1.2-2.2-1.1-4.2-2.1-1.9-.3-2.1-1.9c-1.4,0-2.1,.8-2.9,1.6,0,0-.9,2.7-1,3.2-.5,1.2-1.5,2.9-2.6,2.1-.9-.5-2.5-4.5-2.5-4.5-3.5-6.9-1.9-4.7-6-8.3-1.1-1.1-.9-4.5-.9-4.5,0,0,0-1.6,.6-2.1,.6-.5,3.6-.3,3.6-.3,0,0,1.7,.7,2.2-1.3,.6-2,.2-9.1,.2-9.1l-9.6-.5-13.5,.4-7.5,.6-6.5-1.1-4.4-.8-4.9-1.2Z"/>
        <path class="uuid-0f0ec599-5a47-4587-aa79-11f9622af5a1" d="M198.7,276.9l5.6-1.6c2-1.8,3.8-3.4,5-4.5-.5-3.5-1.4-7-2.1-10.5l2.8,.3-.2-5.5c-.7-.8-.7-1.6,.3-2.2l-.5-1.3-.7-1.8v-3.1c-3.3-1.5,.5-4.8-4.6-7.5-3.4-1.3-.7-4.8-.7-7.4l-.7-9.7-1.4-1.4-.5-4-.6-2.4c-1.3-1.5-2.6-3.4-4.4,.5l-2.1,1.7h-1.8c-.4-1.3-1.8-1.9-1.9-3-.1-2.4-1.3-3.9-2.8,0l-1.1-3.2-2.2-4.9v-2.8c2.2-3.2-.8-3.5-2-4.9-5.9-.7,.5-5.4,.9-7.9,.8-2.5,.9-5.4,1.2-7.7-2.4-1.1-5-2.7-7-3-1.5-.9-.5-2.9-.2-4.7,2.4-7-1.4-12.2-4.7-4.4-1,2-1.5,4.7-3.6,1.9-1.3-2.8-2.7-5.7-4.2-8.7l-3.3-2.2-1-5.2c-.2-3.1,1.4-2.7,2.8-2.6l2.8,.4,.9-3.3-.2-6.4-.4-.8-10.9-.6-11.7,.5-8.7,.5-6.1-1.7-7.3-1.5c-2.6-.5-3.4,.5-3,3.4,0,.4,0,2.5,0,2.8s.2,4.8,.2,4.8l.7,2.5,2.5,3.1c-.5,2.1-.4,4.4,1.1,7.4l.3,4.3-4.4,4.9v4.6l6.5,9.4c1.3,1.3,1,3.2-1.8,5.7-.7,.2-6.2,1.1-6.5,1.1-.3,0-4.1-1.6-3.8,1.6,.2,3.2,0,6.8,0,6.8l-3.4,4.7-.9,3.3-.2,2.7,4.1,.5c2.8-.3,5.7-.6,8.3-2.3,1.9,0,1.7,.8,1.8,2.6,1,2.3,2,1.6,1.9,4.7,.7,3.3,6,2.9,9.9,3.6,1.6,1.7,3.1,3.4,4.2,5.7,1.7,.8,3.5,.7,5.6-1.1,1.3,.6,.3,1,3.1,2.5,3.1,0,7.9,2.6,7.1-3.7,0,0,.6-2,1.3-2s9.6,1.4,9.6,1.4l1.7,1.3,2.1,3.4,2.2,2.6,.7,.9-.6,4.1,.3,2.2s1.5,.9,2.2,1c.7,0,2.8,1.9,2.8,1.9,0,0,2.2,.7,2.8,1,.6,.3,10.9,10.5,10.9,10.5l.9,6.8,4.8,8.7c.9,1.8,1.6,4,2.1,6.5"/>
        <path class="uuid-070e77eb-c482-43fc-ac9d-d947328b66fb" d="M198.7,276.9l5.6-1.6c2-1.8,3.8-3.4,5-4.5-.5-3.5-1.4-7-2.1-10.5l2.8,.3-.2-5.5c-.7-.8-.7-1.6,.3-2.2l-.5-1.3-.7-1.8v-3.1c-3.3-1.5,.5-4.8-4.6-7.5-3.4-1.3-.7-4.8-.7-7.4l-.7-9.7-1.4-1.4-.5-4-.6-2.4c-1.3-1.5-2.6-3.4-4.4,.5l-2.1,1.7h-1.8c-.4-1.3-1.8-1.9-1.9-3-.1-2.4-1.3-3.9-2.8,0l-1.1-3.2-2.2-4.9v-2.8c2.2-3.2-.8-3.5-2-4.9-5.9-.7,.5-5.4,.9-7.9,.8-2.5,.9-5.4,1.2-7.7-2.4-1.1-5-2.7-7-3-1.5-.9-.5-2.9-.2-4.7,2.4-7-1.4-12.2-4.7-4.4-1,2-1.5,4.7-3.6,1.9-1.3-2.8-2.7-5.7-4.2-8.7l-3.3-2.2-1-5.2c-.2-3.1,1.4-2.7,2.8-2.6l2.8,.4,.9-3.3-.2-6.4-.4-.8-10.9-.6-11.7,.5-8.7,.5-6.1-1.7-7.3-1.5c-2.6-.5-3.4,.5-3,3.4,0,.4,0,2.5,0,2.8s.2,4.8,.2,4.8l.7,2.5,2.5,3.1c-.5,2.1-.4,4.4,1.1,7.4l.3,4.3-4.4,4.9v4.6l6.5,9.4c1.3,1.3,1,3.2-1.8,5.7-.7,.2-6.2,1.1-6.5,1.1-.3,0-4.1-1.6-3.8,1.6,.2,3.2,0,6.8,0,6.8l-3.4,4.7-.9,3.3-.2,2.7,4.1,.5c2.8-.3,5.7-.6,8.3-2.3,1.9,0,1.7,.8,1.8,2.6,1,2.3,2,1.6,1.9,4.7,.7,3.3,6,2.9,9.9,3.6,1.6,1.7,3.1,3.4,4.2,5.7,1.7,.8,3.5,.7,5.6-1.1,1.3,.6,.3,1,3.1,2.5,3.1,0,7.9,2.6,7.1-3.7,0,0,.6-2,1.3-2s9.6,1.4,9.6,1.4l1.7,1.3,2.1,3.4,2.2,2.6,.7,.9-.6,4.1,.3,2.2s1.5,.9,2.2,1c.7,0,2.8,1.9,2.8,1.9,0,0,2.2,.7,2.8,1,.6,.3,10.9,10.5,10.9,10.5l.9,6.8,4.8,8.7c.9,1.8,1.6,4,2.1,6.5Z"/>
        <path class="uuid-0f0ec599-5a47-4587-aa79-11f9622af5a1" d="M111.9,214.5h-2.8l-.3,2.2-.8,1.7c-1.2,1.7-2.6,3.3-2.6,5-.3,1.8-1.7,3.4-3.1,4.9l-2.1,2.9,8.5,9.5c6.6,5.6,6.1,1.3,6.8,9.8,2.6,1.9,1.2,2.7-.3,3.5,0,0-.5,5.2-.6,6.4,.6,1.8-.5,4.5,3.6,4.3l4.6-.9,5.9,2.2,6.4,5.5,8.5,8.4,5.1,7.3,1.3,1.4,2.2,1.1,2.2,.4s.7,1.1,1,1.2c.3,0,4.5,5.3,4.5,5.3l-.2,3.5,.3,5.2,.7,2.8,.4,2.2,.7,3.5v2.2c2.4,4.3,4.8,8.8,6,11.1,.9,2.7,2.6,2.2,4.6,2,2.2-.2,4.6,3.6,4.3-.3,.9-1.8,2.6-.5,4.2,0,.9-.7,1.7,.7,3.1-.8,1-1,4.4-1.2,6.6-1.5l-.8-27.2,9.2-22.6-.6-2.2c-.5-3-2.4-5.5-4-8.1l-2.1-4-.9-2.3c.3-1.5,.5-3,0-4-2.3-4.5-7.1-6.8-10.7-11.1l-3.5-1.6-1.7-1.5-2.7-.4-.7-.7,.3-7-1.1-1.1-1.1-.6-2-3.8-1.6-2-5.1-1.1h-6.5c-.4,3.4,.8,7-5.1,5.5l-3-.7-1.5-1.7h-1.8l-2.1,1.2c-5.8,.3-2.4-7.8-13.4-7.1-4.3-.8-3-2.8-3.4-4.5l-1.6-2.5c.2-1.8-.1-3.3-2.8-3.3l-3.8,2.3h-4.6Z"/>
        <path class="uuid-070e77eb-c482-43fc-ac9d-d947328b66fb" d="M111.9,214.5h-2.8l-.3,2.2-.8,1.7c-1.2,1.7-2.6,3.3-2.6,5-.3,1.8-1.7,3.4-3.1,4.9l-2.1,2.9,8.5,9.5c6.6,5.6,6.1,1.3,6.8,9.8,2.6,1.9,1.2,2.7-.3,3.5,0,0-.5,5.2-.6,6.4,.6,1.8-.5,4.5,3.6,4.3l4.6-.9,5.9,2.2,6.4,5.5,8.5,8.4,5.1,7.3,1.3,1.4,2.2,1.1,2.2,.4s.7,1.1,1,1.2c.3,0,4.5,5.3,4.5,5.3l-.2,3.5,.3,5.2,.7,2.8,.4,2.2,.7,3.5v2.2c2.4,4.3,4.8,8.8,6,11.1,.9,2.7,2.6,2.2,4.6,2,2.2-.2,4.6,3.6,4.3-.3,.9-1.8,2.6-.5,4.2,0,.9-.7,1.7,.7,3.1-.8,1-1,4.4-1.2,6.6-1.5l-.8-27.2,9.2-22.6-.6-2.2c-.5-3-2.4-5.5-4-8.1l-2.1-4-.9-2.3c.3-1.5,.5-3,0-4-2.3-4.5-7.1-6.8-10.7-11.1l-3.5-1.6-1.7-1.5-2.7-.4-.7-.7,.3-7-1.1-1.1-1.1-.6-2-3.8-1.6-2-5.1-1.1h-6.5c-.4,3.4,.8,7-5.1,5.5l-3-.7-1.5-1.7h-1.8l-2.1,1.2c-5.8,.3-2.4-7.8-13.4-7.1-4.3-.8-3-2.8-3.4-4.5l-1.6-2.5c.2-1.8-.1-3.3-2.8-3.3l-3.8,2.3h-4.6Z"/>
        <path class="uuid-0f0ec599-5a47-4587-aa79-11f9622af5a1" d="M93.3,349.3l1.9,1.1,1.9-.9,2-.2c1.4,.5,2.8,.7,4-1.4l.2-4.4,.5-1.9,2.7-3.2,2.4-1.8c2.9,.4,3.2-1.1,3-3.1l2.2-.2,2.6,.7,3.6,1.9s.2,1.5,0,2.2c-.5,2.7,.9,3.7,4.6,2.9h2.5c2.8-2,3.5-5.9,8.9-5.3l2.7-.4,1.2-.8,1.1,1.8,1.8,1.8s2.8,1.4,3.1,1.4,1.7-.2,1.7-.2l1.7-.4,.5-1.8,2.4,1.1,1.9,1.9c2.6,2.3,1.7,.4,2.1,0l-1.2-2.4-1.5-2.1-.4-8.3h13.9l-1.2-4.5-2.3-3.9-1.6-2.5s-.7-2.9-.7-3.3-.8-5-.8-5l-1.1-4.4v-7c-1.9-2.8-3.7-5.6-7.5-7.6l-2.8-.6-5.9-8.4-8.9-9-6.6-5.3-2.3-1.2-1.6-.5h-2.8l-2.7,.2-1.2,.4-1.7-.4-1.2-1.8v-3.5l.5-5.2c3.3-1.2,.4-2.5,0-3.7,0,0-.2-2-.3-2.4,.5-2.2-.5-3.3-1.7-4.1-.9-.1-1.9-.4-4.6-2.8-2.3-2.2-3.3-3.8-4.7-5.6l-2.3-2.4-2.1-.9-1.4,1.3v2.5c.5,1.9-.4,3.4-1.3,4.8l-.5,2.3c-.2,1.8-.3,3.6-.9,5.4l.2,2.3c1,3.5-1.3,3.7-2.1,5.8l-1.8,1.9-.7,.5-.2,2.3,1.5,3.3s.7,.9,.7,1.4v2.5c0,.4,.7,2.5,.7,2.5v2.9c0,.4-.5,3.4-.5,4s0,1.9,.2,2.3c1.8,.4,3,.5,1.2,4l-.7,2c-.4,1.1,0,3.3-2.8,.9l-1.5,.9s-.8,1-.8,1.3,.3,2.3,.3,2.3l-.2,2.3-2.2,3.3-.6,6.4,1,3.4-4.2,4.5-.9,4.8,.2,4.4,.9,4,1.2,2.6s.6,.5,.7,1.1c.7,2.5,2.4,2.6,4.2,2.5l1,1.5v1.9l-1.2,1.6c-2.2,1.9,0,2.8,.7,4.2,0,0,2.5,2.2,2.7,2.5,.2,.4,.2,3.3,.2,3.3,.5,1.1,2.6,1.4,.8,3.5"/>
        <path class="uuid-070e77eb-c482-43fc-ac9d-d947328b66fb" d="M93.3,349.3l1.9,1.1,1.9-.9,2-.2c1.4,.5,2.8,.7,4-1.4l.2-4.4,.5-1.9,2.7-3.2,2.4-1.8c2.9,.4,3.2-1.1,3-3.1l2.2-.2,2.6,.7,3.6,1.9s.2,1.5,0,2.2c-.5,2.7,.9,3.7,4.6,2.9h2.5c2.8-2,3.5-5.9,8.9-5.3l2.7-.4,1.2-.8,1.1,1.8,1.8,1.8s2.8,1.4,3.1,1.4,1.7-.2,1.7-.2l1.7-.4,.5-1.8,2.4,1.1,1.9,1.9c2.6,2.3,1.7,.4,2.1,0l-1.2-2.4-1.5-2.1-.4-8.3h13.9l-1.2-4.5-2.3-3.9-1.6-2.5s-.7-2.9-.7-3.3-.8-5-.8-5l-1.1-4.4v-7c-1.9-2.8-3.7-5.6-7.5-7.6l-2.8-.6-5.9-8.4-8.9-9-6.6-5.3-2.3-1.2-1.6-.5h-2.8l-2.7,.2-1.2,.4-1.7-.4-1.2-1.8v-3.5l.5-5.2c3.3-1.2,.4-2.5,0-3.7,0,0-.2-2-.3-2.4,.5-2.2-.5-3.3-1.7-4.1-.9-.1-1.9-.4-4.6-2.8-2.3-2.2-3.3-3.8-4.7-5.6l-2.3-2.4-2.1-.9-1.4,1.3v2.5c.5,1.9-.4,3.4-1.3,4.8l-.5,2.3c-.2,1.8-.3,3.6-.9,5.4l.2,2.3c1,3.5-1.3,3.7-2.1,5.8l-1.8,1.9-.7,.5-.2,2.3,1.5,3.3s.7,.9,.7,1.4v2.5c0,.4,.7,2.5,.7,2.5v2.9c0,.4-.5,3.4-.5,4s0,1.9,.2,2.3c1.8,.4,3,.5,1.2,4l-.7,2c-.4,1.1,0,3.3-2.8,.9l-1.5,.9s-.8,1-.8,1.3,.3,2.3,.3,2.3l-.2,2.3-2.2,3.3-.6,6.4,1,3.4-4.2,4.5-.9,4.8,.2,4.4,.9,4,1.2,2.6s.6,.5,.7,1.1c.7,2.5,2.4,2.6,4.2,2.5l1,1.5v1.9l-1.2,1.6c-2.2,1.9,0,2.8,.7,4.2,0,0,2.5,2.2,2.7,2.5,.2,.4,.2,3.3,.2,3.3,.5,1.1,2.6,1.4,.8,3.5Z"/>
        <path class="uuid-0f0ec599-5a47-4587-aa79-11f9622af5a1" d="M175.9,441.4l1.4-3.3,.7-16.7-.2-5-.7-1.8-.2-5.1-2.6-4.3-1.4-2.3-1-4.9-.3-2-1.5-1.4v-2.1l1.6-4.7,.2-3.6-4.1-2.8-2.8-3.3-.6-3.6-3.4-8.4-1.2-5.6-.3-5.7-.6-6.2-2.1-3.4-.2-2.7-2.6-3.6-.7-11.3,14.1-.3,2,2.3,3.2-.4,3,1.3,.7-.3,.2-2v-.7l2.2,.2,3.2,.9,1.3-.3,1.5-1.5,5.1-.5,4.6,1,4,2.6,2.8,3.3,1.7,4,.3,2,4.6-.4,.6,.7-.4,1.3,1.3,1.9v1.1l-.6,1.3-.5,3.5,.2,3-.7,1.3-.2,2.3-.7,2.5-.2,2.8-.6,1.2-2.3,.8,1.2,16.6c.9,19.8,1.9,40.9,2.6,61.1l-32,1.3Z"/>
        <path class="uuid-070e77eb-c482-43fc-ac9d-d947328b66fb" d="M175.9,441.4l1.4-3.3,.7-16.7-.2-5-.7-1.8-.2-5.1-2.6-4.3-1.4-2.3-1-4.9-.3-2-1.5-1.4v-2.1l1.6-4.7,.2-3.6-4.1-2.8-2.8-3.3-.6-3.6-3.4-8.4-1.2-5.6-.3-5.7-.6-6.2-2.1-3.4-.2-2.7-2.6-3.6-.7-11.3,14.1-.3,2,2.3,3.2-.4,3,1.3,.7-.3,.2-2v-.7l2.2,.2,3.2,.9,1.3-.3,1.5-1.5,5.1-.5,4.6,1,4,2.6,2.8,3.3,1.7,4,.3,2,4.6-.4,.6,.7-.4,1.3,1.3,1.9v1.1l-.6,1.3-.5,3.5,.2,3-.7,1.3-.2,2.3-.7,2.5-.2,2.8-.6,1.2-2.3,.8,1.2,16.6c.9,19.8,1.9,40.9,2.6,61.1l-32,1.3Z"/>
        <path class="uuid-0f0ec599-5a47-4587-aa79-11f9622af5a1" d="M95.8,450.8l1.6,4.8,.9,1.9-.2,1.7,1.9,1.2,1.3,2.2,3.7,2.5,7.5,7.5,.3,2.3,.8,1.8,3,1.9,3.1,.8,6-.4,2.8,3.5,1.4,1.2,5.6-.2,2.2,1.5,2.4-.2,3.4,1.8,1.6,.9,.4-.4-2.6-36.9-1.5-2.6-.3-4.9,2.4,.2,31.4-1.2,.8-.4,1.2-3.3,.9-16.9-.2-4.8-.6-1.1-.6-5.6-3.8-6.8-1.3-6.6-1.2-1.7-.3-1.9,1.7-4.3,.2-4.3-4.2-2.5-3-3.4-.2-3.4-3.5-8.7-1.2-5-.9-12.4-2-3.4-.2-2.6-2.7-3.6-.7,.4-6.3-.6-5.2-2.5v-2.1l-1.2-1.4-1.1,1.1-4.5,.4-6,5.3-1.9,2c-2.1,0-4.2-.2-6.3-.3l-.4-5c-1.3-.9-2.4-1.7-6.5-3.3-1.2,.5-2.4,1-3.3,3.6-3.4,.6-4.2,1.9-6.2,4.6-2.5,3-.5,6.6-2.9,8.7-2.9-1.9-6.6,2-8.4-.4-.9,1.4-.8,2.5,1.2,5.4,2.6,3.3,1.9,7.1,2.7,10.6,.4,1.6,.5,3.2,1.5,4.7,1,.2,1.8,.6,3.9-.4,3.3,1.3,1.5,4.9,.8,7.9v4l-.2,2.9,.9,4c.3,2,.5,4.2,1,5.5l-1.4,.9-2.2,3.9,.7,3.2-1.8,2.2s-1.4,1.9-1.3,2.3c0,.4-.9,2.2-.9,2.2,0,0-1.9,.9-2,1.2,0,.4-.5,1.8-.5,1.8l1.4,1.6,.3,1.4-.6,2.3-.2,3.3-1.7,1.8-1.8,2.5-.7,1.8,2.7,2.8v1.8l1.6,3.2,.2,2.7,1.7,4.8,.2,3.4-1.1,4-1.4,1.5Z"/>
        <path class="uuid-070e77eb-c482-43fc-ac9d-d947328b66fb" d="M95.8,450.8l1.6,4.8,.9,1.9-.2,1.7,1.9,1.2,1.3,2.2,3.7,2.5,7.5,7.5,.3,2.3,.8,1.8,3,1.9,3.1,.8,6-.4,2.8,3.5,1.4,1.2,5.6-.2,2.2,1.5,2.4-.2,3.4,1.8,1.6,.9,.4-.4-2.6-36.9-1.5-2.6-.3-4.9,2.4,.2,31.4-1.2,.8-.4,1.2-3.3,.9-16.9-.2-4.8-.6-1.1-.6-5.6-3.8-6.8-1.3-6.6-1.2-1.7-.3-1.9,1.7-4.3,.2-4.3-4.2-2.5-3-3.4-.2-3.4-3.5-8.7-1.2-5-.9-12.4-2-3.4-.2-2.6-2.7-3.6-.7,.4-6.3-.6-5.2-2.5v-2.1l-1.2-1.4-1.1,1.1-4.5,.4-6,5.3-1.9,2c-2.1,0-4.2-.2-6.3-.3l-.4-5c-1.3-.9-2.4-1.7-6.5-3.3-1.2,.5-2.4,1-3.3,3.6-3.4,.6-4.2,1.9-6.2,4.6-2.5,3-.5,6.6-2.9,8.7-2.9-1.9-6.6,2-8.4-.4-.9,1.4-.8,2.5,1.2,5.4,2.6,3.3,1.9,7.1,2.7,10.6,.4,1.6,.5,3.2,1.5,4.7,1,.2,1.8,.6,3.9-.4,3.3,1.3,1.5,4.9,.8,7.9v4l-.2,2.9,.9,4c.3,2,.5,4.2,1,5.5l-1.4,.9-2.2,3.9,.7,3.2-1.8,2.2s-1.4,1.9-1.3,2.3c0,.4-.9,2.2-.9,2.2,0,0-1.9,.9-2,1.2,0,.4-.5,1.8-.5,1.8l1.4,1.6,.3,1.4-.6,2.3-.2,3.3-1.7,1.8-1.8,2.5-.7,1.8,2.7,2.8v1.8l1.6,3.2,.2,2.7,1.7,4.8,.2,3.4-1.1,4-1.4,1.5Z"/>
        <path class="uuid-0f0ec599-5a47-4587-aa79-11f9622af5a1" d="M80.2,595.5l13.3-1.1c1-.6,1.9-1.1,2.9-3l-1.2-2-.3-3c1.5-4.8,2-4.8,4.2-6.4,3.8-1.1,8-1.9,11-3.9l1.7-2.7,1.9-2.9-.6-2.1,1.2-1.3,.8-.7-.9-6,.7-1c1.8,.2,2.5-1,3.5-2.1,.9-1.1,2.6-1.4,4.4-2.2l2.1-1.9,2.4-2.9,6.6-5,4.6-7.9,1.6-3.8,1.2-.5h1.7l2.1-1.1,2-1.1,2.6-.9,1.2-.4-1-1.9-.4-2.5-1.3-2.5-.8-3.4-1.6-31.9-2.7-1.5-2.4-.9-2.8,.4-1.6-1.1-1.5-.7-2.2,.2-2.6,.3-1.2-1.1-2.4-3-1.5-.6-8.3-.3s-2.6-2.1-3.1-2.5c-.5-.4-.7-2.5-.7-2.5l-.5-1.5-1.7-1.9-3.9-4.2-2.3-1.8s-.7-.4-2.2-1.6c-1.5-1.1-2-2.5-2.6-3-.7-.5-1.3,0-1.2-1.3,0-1.4-.7-3.3-.7-3.3l-1.4-4.5-1,.3s-1.1,.5-1.7,1.1c-1,1-2.2,5.7-1.7,5.5,0,0,1.5,.6-.5,1.4-2,.8-2.4,.9-2.4,.9l-1.9-.3v1.1l-1.8,2.4-.4,1.2,.7,1.8-.8,1.1-1.2,.6-.5,2.3,.2,3.9,.5,2.5,.7,3.3-.7,2.1-.6,2.7-.2,2,1.2,1.1,1,3.2-.2,1.6-1,2.7,.8,3.3,1,3.2,1.3,2.5,1.7,2,.6,3.4v3.5l.2,2.5,1.7,1.9,2.5,2.6-.2,4.7v1.2l-4.9,2.3c-1.9,2.2-5.1,3.6-5.4,6.9l.4,1.8,.9,.7,.9,2.7-.5,2.9c-.9,1.5-2.4,3-2.3,4.7v3.9c.2,2.5-1.9,1.1-2.9,1.5l-1.3,.9-.4,1.5c-1.4,3.6,1.3,4.4,2.8,6v1.2l-.5,2.1-1.2,1.4-1.5,.8-.5,1.8,.4,2,1.5,1.2,1.5,1.7-1.1,2.4c-.9,1.4-2.9,2.8-1.3,4.1l-.7,2.9-.6,2.5,1.1,3.5,1.6,2.6,.7,3.2Z"/>
        <path class="uuid-070e77eb-c482-43fc-ac9d-d947328b66fb" d="M80.2,595.5l13.3-1.1c1-.6,1.9-1.1,2.9-3l-1.2-2-.3-3c1.5-4.8,2-4.8,4.2-6.4,3.8-1.1,8-1.9,11-3.9l1.7-2.7,1.9-2.9-.6-2.1,1.2-1.3,.8-.7-.9-6,.7-1c1.8,.2,2.5-1,3.5-2.1,.9-1.1,2.6-1.4,4.4-2.2l2.1-1.9,2.4-2.9,6.6-5,4.6-7.9,1.6-3.8,1.2-.5h1.7l2.1-1.1,2-1.1,2.6-.9,1.2-.4-1-1.9-.4-2.5-1.3-2.5-.8-3.4-1.6-31.9-2.7-1.5-2.4-.9-2.8,.4-1.6-1.1-1.5-.7-2.2,.2-2.6,.3-1.2-1.1-2.4-3-1.5-.6-8.3-.3s-2.6-2.1-3.1-2.5c-.5-.4-.7-2.5-.7-2.5l-.5-1.5-1.7-1.9-3.9-4.2-2.3-1.8s-.7-.4-2.2-1.6c-1.5-1.1-2-2.5-2.6-3-.7-.5-1.3,0-1.2-1.3,0-1.4-.7-3.3-.7-3.3l-1.4-4.5-1,.3s-1.1,.5-1.7,1.1c-1,1-2.2,5.7-1.7,5.5,0,0,1.5,.6-.5,1.4-2,.8-2.4,.9-2.4,.9l-1.9-.3v1.1l-1.8,2.4-.4,1.2,.7,1.8-.8,1.1-1.2,.6-.5,2.3,.2,3.9,.5,2.5,.7,3.3-.7,2.1-.6,2.7-.2,2,1.2,1.1,1,3.2-.2,1.6-1,2.7,.8,3.3,1,3.2,1.3,2.5,1.7,2,.6,3.4v3.5l.2,2.5,1.7,1.9,2.5,2.6-.2,4.7v1.2l-4.9,2.3c-1.9,2.2-5.1,3.6-5.4,6.9l.4,1.8,.9,.7,.9,2.7-.5,2.9c-.9,1.5-2.4,3-2.3,4.7v3.9c.2,2.5-1.9,1.1-2.9,1.5l-1.3,.9-.4,1.5c-1.4,3.6,1.3,4.4,2.8,6v1.2l-.5,2.1-1.2,1.4-1.5,.8-.5,1.8,.4,2,1.5,1.2,1.5,1.7-1.1,2.4c-.9,1.4-2.9,2.8-1.3,4.1l-.7,2.9-.6,2.5,1.1,3.5,1.6,2.6,.7,3.2Z"/>
        <path class="uuid-0f0ec599-5a47-4587-aa79-11f9622af5a1" d="M145.4,487.4l1.9,.2,2.3,.3h1.2l2.4-.4h1.2l1.8,2.6,.3,1.5-.3,2.3-1.9,2.5-1.4,3-.8,1.8,1.6,2.3,3,1.9,1.9,1.5,4.4-.6,2.3,1.6,2.7-.6,2.1,.7,.4,2.5,1.5,1.3,3.6,.2,4.7,3.3,1.7,1.8,1.1,1.3,2,.7,9.4,.4,2.4,1.1,2.5,.6,1.5-1,1.7-.4s1.2,0,1.9,.4c.7,.5,4.5,.5,4.5,.5l7.2-.6,7.5,1,9.3,3.5,6.1,3.3,4,4.6,3.1,2.2,1.7-.4c0-41.5-.9-82.4-1.3-123.9l-39.7,1.5,1,28.4c-31.2,1.4-66.5,2.9-66.5,3.4l.2,3.7c.3,1.6,.8,2.9,1.8,3.6,.6,12.2,1.1,24.2,2.2,36.8"/>
        <path class="uuid-070e77eb-c482-43fc-ac9d-d947328b66fb" d="M145.4,487.4l1.9,.2,2.3,.3h1.2l2.4-.4h1.2l1.8,2.6,.3,1.5-.3,2.3-1.9,2.5-1.4,3-.8,1.8,1.6,2.3,3,1.9,1.9,1.5,4.4-.6,2.3,1.6,2.7-.6,2.1,.7,.4,2.5,1.5,1.3,3.6,.2,4.7,3.3,1.7,1.8,1.1,1.3,2,.7,9.4,.4,2.4,1.1,2.5,.6,1.5-1,1.7-.4s1.2,0,1.9,.4c.7,.5,4.5,.5,4.5,.5l7.2-.6,7.5,1,9.3,3.5,6.1,3.3,4,4.6,3.1,2.2,1.7-.4c0-41.5-.9-82.4-1.3-123.9l-39.7,1.5,1,28.4c-31.2,1.4-66.5,2.9-66.5,3.4l.2,3.7c.3,1.6,.8,2.9,1.8,3.6,.6,12.2,1.1,24.2,2.2,36.8Z"/>
        <path class="uuid-0f0ec599-5a47-4587-aa79-11f9622af5a1" d="M260.9,580.5c-2,.7-2.8,1.9-4.2,3l-1.6,1s-4.9-.6-6.1,.1h-9.3l-1.2-1.2-3.4-1.9-1,.2-.5-.6h-1.6l-1.2-1.4-1.3-.4-1-.8h-1v-.7h-.9c-1.9-1.1-1.8-.8-4-.8l-.2-.6h-2.1v.6c-1.9,.2-1.6-1.5-.8-1.4,1.3,.1,1.7-.5,1.8-1.4l-2.5-.7h-1.2l.5,.8,.5,.8-2.1-.2-.4,1.1-1,1-.5,1.4-.8,2.5-.2,2.1h.5v1.6l.3,.3v2.4h.3v.4l.4,.3v1.8l.3,.4v1.6l.8,1.3,.9,1.6,.7,1v.8l-.5,.7,.2,4.8,.3,.3v.5H80.1l-.8-2.2,.3-3.2,.6-2.1,9.3-1h4l1.6-1.6,.9-1.2-.6-3-.6-3.1,1.1-2.5,2-2.3,1.3-.6,4.2-1.8,6.3-1.9,2.4-2.3,1.3-3.6,.2-2.3,1.5-1.2-.7-5.7,.8-1.5,2.5-1.1,1-1.2,1-1.4h1l2.7-1.2,2.1-2.8,9.3-8.1,3.2-5.9,1.7-3.4,1.5-1.1,2.8-.3,2.3-1.6,1.9-1h2.5l.3-1-1.2-2-.3-2.5-1-2.3-1.2-2.1-1.6-33,2.6-.3,1.6,.5,1.6,.2,1.1-.6,1.2-.2,1,.8,1,1.2,.6,1.2,.2,1.9-1,3.2-2.7,4.8,1.6,2.5,1.6,2,.9,1,4.3,1,1.8,.4h6.2l1,1.1,.5,1.8,1.1,.8,1.6,.6h2l5.1,3.4,.9,1.3,1.5,1.9,1.3,.3,2.9,.6,7.6,.3,2.3,1.1h1.9l2-.7,1.1-.5,1.4,.4,4,.9,5.6-.8,7.3,.3,6.2,1.7,5,1.9,4.6,1.6,5.5,3.6,2,3.4,4.4,1.6,.2,35.5c-.1,1.8,4.1,2.3,6.5,4.1l2.1,1.1,1.9,2.7,2.4,2.8Z"/>
        <path class="uuid-070e77eb-c482-43fc-ac9d-d947328b66fb" d="M260.9,580.5c-2,.7-2.8,1.9-4.2,3l-1.6,1s-4.9-.6-6.1,.1h-9.3l-1.2-1.2-3.4-1.9-1,.2-.5-.6h-1.6l-1.2-1.4-1.3-.4-1-.8h-1v-.7h-.9c-1.9-1.1-1.8-.8-4-.8l-.2-.6h-2.1v.6c-1.9,.2-1.6-1.5-.8-1.4,1.3,.1,1.7-.5,1.8-1.4l-2.5-.7h-1.2l.5,.8,.5,.8-2.1-.2-.4,1.1-1,1-.5,1.4-.8,2.5-.2,2.1h.5v1.6l.3,.3v2.4h.3v.4l.4,.3v1.8l.3,.4v1.6l.8,1.3,.9,1.6,.7,1v.8l-.5,.7,.2,4.8,.3,.3v.5H80.1l-.8-2.2,.3-3.2,.6-2.1,9.3-1h4l1.6-1.6,.9-1.2-.6-3-.6-3.1,1.1-2.5,2-2.3,1.3-.6,4.2-1.8,6.3-1.9,2.4-2.3,1.3-3.6,.2-2.3,1.5-1.2-.7-5.7,.8-1.5,2.5-1.1,1-1.2,1-1.4h1l2.7-1.2,2.1-2.8,9.3-8.1,3.2-5.9,1.7-3.4,1.5-1.1,2.8-.3,2.3-1.6,1.9-1h2.5l.3-1-1.2-2-.3-2.5-1-2.3-1.2-2.1-1.6-33,2.6-.3,1.6,.5,1.6,.2,1.1-.6,1.2-.2,1,.8,1,1.2,.6,1.2,.2,1.9-1,3.2-2.7,4.8,1.6,2.5,1.6,2,.9,1,4.3,1,1.8,.4h6.2l1,1.1,.5,1.8,1.1,.8,1.6,.6h2l5.1,3.4,.9,1.3,1.5,1.9,1.3,.3,2.9,.6,7.6,.3,2.3,1.1h1.9l2-.7,1.1-.5,1.4,.4,4,.9,5.6-.8,7.3,.3,6.2,1.7,5,1.9,4.6,1.6,5.5,3.6,2,3.4,4.4,1.6,.2,35.5c-.1,1.8,4.1,2.3,6.5,4.1l2.1,1.1,1.9,2.7,2.4,2.8Z"/>
        <path class="uuid-0f0ec599-5a47-4587-aa79-11f9622af5a1" d="M180.3,169.1l-2.3-.9-.2,4s-.8,2.1-.9,2.6c0,.5-.3,3-.3,3l.2,1.8h2.6s1.5,.9,1.9,1.2c4.7,.7,2.3,3.5,2.2,7.6l-1.7,3.6s-1.9,2.5-1.9,3v1.8l2.8,1.7,1.7,.7,.2,2.5c-.3,1.6-1,3.1,.2,4.9l1.6,3.9c1.7,6.7,2,1.2,2.9,.9,1.6,.5,1,1.1,1.3,2.5,.2,.7,1.3,2.1,1.3,2.1,1.5,2.1,2,.5,2.9,.4l1.8-2c1.9-3.7,2.8-.7,4.1,0,3.5-1.4,5-3,6.8-4.6-.2-.9-1.6-1.9-1.6-1.9l-.2-1.1,.6-4,.2-3.4,.7-1.6c2.3,.9,1.5-1.4,1.7-2.6l2.5-9,1.7-2.1,1.2-2-.3-1.4s.7-1,1-1.3c.3-.4,.7-2.4,.7-2.4l-.7-2.3c-.6-1.4,4-7-2.1-6.3h-1.4c-.3,0-2.4-.6-2.4-.6,0,0-1.9,1.4-2.3,1.5-.4,0-1.7-.3-1.7-.3l-2.5-.5-2.1-1.1h-2.2l-2.1-1.8c-1.1-.4-1.9-2.4-2.7-1.1l-2.6-.3-3.1,.2-.6,2s0,1.8,.2,2.2c1,4-.8,3.4-3.4,1.6l-3.6-1Z"/>
        <path class="uuid-070e77eb-c482-43fc-ac9d-d947328b66fb" d="M180.3,169.1l-2.3-.9-.2,4s-.8,2.1-.9,2.6c0,.5-.3,3-.3,3l.2,1.8h2.6s1.5,.9,1.9,1.2c4.7,.7,2.3,3.5,2.2,7.6l-1.7,3.6s-1.9,2.5-1.9,3v1.8l2.8,1.7,1.7,.7,.2,2.5c-.3,1.6-1,3.1,.2,4.9l1.6,3.9c1.7,6.7,2,1.2,2.9,.9,1.6,.5,1,1.1,1.3,2.5,.2,.7,1.3,2.1,1.3,2.1,1.5,2.1,2,.5,2.9,.4l1.8-2c1.9-3.7,2.8-.7,4.1,0,3.5-1.4,5-3,6.8-4.6-.2-.9-1.6-1.9-1.6-1.9l-.2-1.1,.6-4,.2-3.4,.7-1.6c2.3,.9,1.5-1.4,1.7-2.6l2.5-9,1.7-2.1,1.2-2-.3-1.4s.7-1,1-1.3c.3-.4,.7-2.4,.7-2.4l-.7-2.3c-.6-1.4,4-7-2.1-6.3h-1.4c-.3,0-2.4-.6-2.4-.6,0,0-1.9,1.4-2.3,1.5-.4,0-1.7-.3-1.7-.3l-2.5-.5-2.1-1.1h-2.2l-2.1-1.8c-1.1-.4-1.9-2.4-2.7-1.1l-2.6-.3-3.1,.2-.6,2s0,1.8,.2,2.2c1,4-.8,3.4-3.4,1.6l-3.6-1Z"/>
        <path class="uuid-0f0ec599-5a47-4587-aa79-11f9622af5a1" d="M267.7,64.6c2.3,2.9,3.6,6,6.8,8.6,.5,1,1,.9,1.5,3.2,3,2.3,6.1,4.2,8.9,7.1,1.1,1.7,1.8,4.2,4.6,4.6,3.5,.3,2.2,1.2,3.3,1.9,1.7,.6,3.7,.9,3.7,3.1,1.6,2.7,3.2,5.4,7.6,6.3l4,4.8c4.3,1.2,6.7,7.1,8.5,3.7,3.9-1.5,4.7,.2,5.8,1.7h2.3l2.7,1.1c11.6,2.2,12.1,6.9,19.6,11.3l2.2,.6,4.1,2.6c4.7-.3,6.9,2.2,11.2,5.5h2.2l6.9,3.3,4.9,5,1.7,1.7v1.3l1.8,2.1,.5,1.2c-6.3,9.7-4.8,2.1-6.8,10-3.2,7.1-7.2,9.4-9.5,14.7l-.4,2.9c.3,5.6-.8,3.3-2.4,8.4l-1.8,3-3.1-3.4c-2.3-.8-3.9-3.4-5.8-5.3l-2.8-3.2c-1.3-1.4-3.8-2.8-6.5-4.1-3.9-.6-5.1-.7-7.3-3.3-.6-1.8-2-2.8-4.2-2.9-2.9,0-1.7-2.4-2.2-4.3-.2-.4-1.9-1.5-1.9-1.5l-2.2-3.9c-.7-1.2-1.6-2-3.2-2,0,0-1.4-1.8-1.8-2-.4-.3-2.5-1-2.5-1,0-1.8-.2-3.3-1.2-4.2l-2.9-2.9c-1.3,.2-2.2-1.2-2.9-3.3l-2.8-2.4-2.2-1-5.1-3.1-2.2-2.5-3.6-2.8c-1.6-.9,0-4.3-6.5-5.3l-2.5-2.2c-1.6-1.6-3.1-3.4-4.8-4-.4-.2-.8,.4-1.3-.2,1.1-3-.8-3.4-3.7-3.2-.5-1.8-2.3-2.4-4.6-2.6h-3.8v-43.3Z"/>
        <path class="uuid-070e77eb-c482-43fc-ac9d-d947328b66fb" d="M267.7,64.6c2.3,2.9,3.6,6,6.8,8.6,.5,1,1,.9,1.5,3.2,3,2.3,6.1,4.2,8.9,7.1,1.1,1.7,1.8,4.2,4.6,4.6,3.5,.3,2.2,1.2,3.3,1.9,1.7,.6,3.7,.9,3.7,3.1,1.6,2.7,3.2,5.4,7.6,6.3l4,4.8c4.3,1.2,6.7,7.1,8.5,3.7,3.9-1.5,4.7,.2,5.8,1.7h2.3l2.7,1.1c11.6,2.2,12.1,6.9,19.6,11.3l2.2,.6,4.1,2.6c4.7-.3,6.9,2.2,11.2,5.5h2.2l6.9,3.3,4.9,5,1.7,1.7v1.3l1.8,2.1,.5,1.2c-6.3,9.7-4.8,2.1-6.8,10-3.2,7.1-7.2,9.4-9.5,14.7l-.4,2.9c.3,5.6-.8,3.3-2.4,8.4l-1.8,3-3.1-3.4c-2.3-.8-3.9-3.4-5.8-5.3l-2.8-3.2c-1.3-1.4-3.8-2.8-6.5-4.1-3.9-.6-5.1-.7-7.3-3.3-.6-1.8-2-2.8-4.2-2.9-2.9,0-1.7-2.4-2.2-4.3-.2-.4-1.9-1.5-1.9-1.5l-2.2-3.9c-.7-1.2-1.6-2-3.2-2,0,0-1.4-1.8-1.8-2-.4-.3-2.5-1-2.5-1,0-1.8-.2-3.3-1.2-4.2l-2.9-2.9c-1.3,.2-2.2-1.2-2.9-3.3l-2.8-2.4-2.2-1-5.1-3.1-2.2-2.5-3.6-2.8c-1.6-.9,0-4.3-6.5-5.3l-2.5-2.2c-1.6-1.6-3.1-3.4-4.8-4-.4-.2-.8,.4-1.3-.2,1.1-3-.8-3.4-3.7-3.2-.5-1.8-2.3-2.4-4.6-2.6h-3.8v-43.3Z"/>
        <path class="uuid-0f0ec599-5a47-4587-aa79-11f9622af5a1" d="M362.8,194.9l9,.8,7.6,3.3,7.4,1.5,3.8,2,5.7,2.4,2.6,.4c-.6-1.8,.8-2.1,1.2-3.1,.9-1.4,2.1-1.6,3.5-.6l1.4,3.2,1.7-.9,2.4-3.7,4.6-2.1,4,1.8-1.5,2.4s.3,1.4,.3,1.9,0,3.2,0,3.2l.6,2.2,2.1,3.2,1.5,1.3,.3,1.8,2.3,2.7,1.4,2,.5,2.3-1.9,2.3c-1.4,2.9-1.4,1.9-3.4,4-.2,.4-1.2,1.7-1.2,1.7l-1.8,.8s-.9,1.8-1.2,2.2c-.3,.4-2,1.2-2,1.2l-1.5,1.8-2.5,3.4s-1.1,2.4-1.6,3c-.5,.5-2.5,2.8-2.5,2.8l-2.6,1-1.2,1.6-1.5,2.1-.6,2.8s-1.9,2-2.2,2.5c-.3,.5-1.5,2-1.5,2l-1.9,.5c-1.2-.4-1,1.2-1.1,2.4l-1.9,1.5-2.6,2.1c-1.5,.3-2.4,1-3.1,2l-.5,1.2s-1.3,.3-1.5,.6c-.2,.4-.3,2.1-.3,2.1,0,0,0,1.8-.3,2-.3,.2-2.5,2.1-2.5,2.1l-2.1,1-1.8,.9-1,1.9-1,3.3-1.8,3.1s-1.3,1.6-1.4,2.2c0,.5-.6,3.3-.6,3.3l-2.6-4.8v-3.6l-3.2-1.9-1.4-1.8-1.7-1.2-3.9-1.1-4.1,.6-3.8,1.8-3.6-.5-2.5,1.1-2.8,1h-4l-3.2-.6-2.5,1.4-.9,.3,.8-5.4s.8-2.8,.8-3.3-1-3.5-1.1-4c0-.5-.3-2.6,0-3.3,.4-.6,2.1-6.1,1.9-6.6-.2-.5,.3-5.5,.3-5.5,.5-2.4,3.1-3.1,5-4.1l4.4-4.4,.8-5.4,.4-3.9,.4-1.3,.5-3.2v-4.6l1.8-5.7,2.2-2.8s1.7-1.9,1.7-2.5,.9-4.9,.8-5.4c0-.5-.5-3.5-.5-3.5l-.3-5.1s.8-1.7,.9-2.1c3.2-1.9,7-3.4,11.5-4.1"/>
        <path class="uuid-2a64606b-65d8-4185-8f15-82274cbcee64" d="M362.8,194.9l9,.8,7.6,3.3,7.4,1.5,3.8,2,5.7,2.4,2.6,.4c-.6-1.8,.8-2.1,1.2-3.1,.9-1.4,2.1-1.6,3.5-.6l1.4,3.2,1.7-.9,2.4-3.7,4.6-2.1,4,1.8-1.5,2.4s.3,1.4,.3,1.9,0,3.2,0,3.2l.6,2.2,2.1,3.2,1.5,1.3,.3,1.8,2.3,2.7,1.4,2,.5,2.3-1.9,2.3c-1.4,2.9-1.4,1.9-3.4,4-.2,.4-1.2,1.7-1.2,1.7l-1.8,.8s-.9,1.8-1.2,2.2c-.3,.4-2,1.2-2,1.2l-1.5,1.8-2.5,3.4s-1.1,2.4-1.6,3c-.5,.5-2.5,2.8-2.5,2.8l-2.6,1-1.2,1.6-1.5,2.1-.6,2.8s-1.9,2-2.2,2.5c-.3,.5-1.5,2-1.5,2l-1.9,.5c-1.2-.4-1,1.2-1.1,2.4l-1.9,1.5-2.6,2.1c-1.5,.3-2.4,1-3.1,2l-.5,1.2s-1.3,.3-1.5,.6c-.2,.4-.3,2.1-.3,2.1,0,0,0,1.8-.3,2-.3,.2-2.5,2.1-2.5,2.1l-2.1,1-1.8,.9-1,1.9-1,3.3-1.8,3.1s-1.3,1.6-1.4,2.2c0,.5-.6,3.3-.6,3.3l-2.6-4.8v-3.6l-3.2-1.9-1.4-1.8-1.7-1.2-3.9-1.1-4.1,.6-3.8,1.8-3.6-.5-2.5,1.1-2.8,1h-4l-3.2-.6-2.5,1.4-.9,.3,.8-5.4s.8-2.8,.8-3.3-1-3.5-1.1-4c0-.5-.3-2.6,0-3.3,.4-.6,2.1-6.1,1.9-6.6-.2-.5,.3-5.5,.3-5.5,.5-2.4,3.1-3.1,5-4.1l4.4-4.4,.8-5.4,.4-3.9,.4-1.3,.5-3.2v-4.6l1.8-5.7,2.2-2.8s1.7-1.9,1.7-2.5,.9-4.9,.8-5.4c0-.5-.5-3.5-.5-3.5l-.3-5.1s.8-1.7,.9-2.1c3.2-1.9,7-3.4,11.5-4.1Z"/>
        <path class="uuid-0f0ec599-5a47-4587-aa79-11f9622af5a1" d="M395,201.5l-1.2,.8-.9-.3,.3,.9c1.4,.9,2.7,1.3,4.1,1.5l.8-.6-.5-1.5-1.3-.4-1.3-.3Z"/>
        <path class="uuid-2a64606b-65d8-4185-8f15-82274cbcee64" d="M395,201.5l-1.2,.8-.9-.3,.3,.9c1.4,.9,2.7,1.3,4.1,1.5l.8-.6-.5-1.5-1.3-.4-1.3-.3Z"/>
        <path class="uuid-0f0ec599-5a47-4587-aa79-11f9622af5a1" d="M355,382.9l-1.5-5.8,1.3-8.8,1.3-4.3,1.6-5.3,3.9-1,1.9-2-.8-8.6-1.5-5.4,1.5-5.1,1.2-2.2-1.4-3.7,.4-3.1-.4-1.8-.2-2.1,3.4-2.6,1-4.2,.3-1.9-.8-1.4v-1.6l2.5-3.3,1.5-5.1,1-8.4-.3-3.7-1.1-2.4-2.5-4.4,.2-3.2-3.7-1.9-2-2.4-2.2-.7-4.1-.6-2.8,.5-2.9,1.3-1.6,.3-2.6-.3-1.5,.8-2.6,1.1-3.6,.2-1.5,.4-2.8-1-3.8,2.1,.3,7.8-1.2,3.9-2.3,4.3s-4.9,7.8-4.9,8.2-3.1,6.3-3.1,6.3l-6.2,4.8-4.5,4-1.9,4.2v4.7l-.9,6-.9,5.9,1,6.2s.5,3.9,.9,3.7c.3-.2,3.7,5.1,3.7,5.1l3.8,3.6,7.4,7.9,6,3.1,1.5,2.1,4,1.4,2.8,3,3.5,.5,3.3,1.3,4.5,.8,2.6,1.5,2.6,1.7h2l.9-.4Z"/>
        <path class="uuid-070e77eb-c482-43fc-ac9d-d947328b66fb" d="M355,382.9l-1.5-5.8,1.3-8.8,1.3-4.3,1.6-5.3,3.9-1,1.9-2-.8-8.6-1.5-5.4,1.5-5.1,1.2-2.2-1.4-3.7,.4-3.1-.4-1.8-.2-2.1,3.4-2.6,1-4.2,.3-1.9-.8-1.4v-1.6l2.5-3.3,1.5-5.1,1-8.4-.3-3.7-1.1-2.4-2.5-4.4,.2-3.2-3.7-1.9-2-2.4-2.2-.7-4.1-.6-2.8,.5-2.9,1.3-1.6,.3-2.6-.3-1.5,.8-2.6,1.1-3.6,.2-1.5,.4-2.8-1-3.8,2.1,.3,7.8-1.2,3.9-2.3,4.3s-4.9,7.8-4.9,8.2-3.1,6.3-3.1,6.3l-6.2,4.8-4.5,4-1.9,4.2v4.7l-.9,6-.9,5.9,1,6.2s.5,3.9,.9,3.7c.3-.2,3.7,5.1,3.7,5.1l3.8,3.6,7.4,7.9,6,3.1,1.5,2.1,4,1.4,2.8,3,3.5,.5,3.3,1.3,4.5,.8,2.6,1.5,2.6,1.7h2l.9-.4Z"/>
        <polygon class="uuid-d7dd72f7-dc42-44cf-a60b-69bdea55724d" points="275 525.9 274.8 525.4 274.8 526.5 275.1 527.2 275.1 527.9 275.8 528 276.7 528.8 276.9 528.9 277.9 529 278.5 529.3 278.8 530.6 279.3 530.4 279.8 528.5 279.3 527.6 278.9 527 278.4 526.6 277.9 526.2 275 525.9"/>
        <polygon class="uuid-0c45bbfb-ba24-4a82-bb28-6981c56eb757" points="275 525.9 274.8 525.4 274.8 526.5 275.1 527.2 275.1 527.9 275.8 528 276.7 528.8 276.9 528.9 277.9 529 278.5 529.3 278.8 530.6 279.3 530.4 279.8 528.5 279.3 527.6 278.9 527 278.4 526.6 277.9 526.2 275 525.9"/>
        <polygon class="uuid-d7dd72f7-dc42-44cf-a60b-69bdea55724d" points="273.5 522.5 273.5 523.4 273.8 523.9 273.3 524.1 274.4 524.3 275.2 524 276.7 524.9 276.9 525.4 277.7 524.7 276.9 524.2 276 524 275.9 523.3 274.2 523.5 273.5 523 273.5 522.5 273.5 522.5"/>
        <polygon class="uuid-0c45bbfb-ba24-4a82-bb28-6981c56eb757" points="273.5 522.5 273.5 523.4 273.8 523.9 273.3 524.1 274.4 524.3 275.2 524 276.7 524.9 276.9 525.4 277.7 524.7 276.9 524.2 276 524 275.9 523.3 274.2 523.5 273.5 523 273.5 522.5 273.5 522.5"/>
        <polygon class="uuid-0f0ec599-5a47-4587-aa79-11f9622af5a1" points="270.3 522.3 270.5 523 271 522.8 270.9 522.4 271.3 521.9 270.8 521.7 270.3 522.3"/>
        <polygon class="uuid-f145b040-a390-4bde-a9e5-ae6e674cb0c1" points="270.8 521.7 270.3 522.3 270.5 523 271 522.8 270.9 522.4 271.3 521.9 270.8 521.7"/>
        <polygon class="uuid-0f0ec599-5a47-4587-aa79-11f9622af5a1" points="276.7 530.6 276.7 530.1 275.9 529.9 276.7 530.6"/>
        <polygon class="uuid-f145b040-a390-4bde-a9e5-ae6e674cb0c1" points="275.9 529.9 276.7 530.1 276.7 530.6 275.9 529.9"/>
        <polygon class="uuid-0f0ec599-5a47-4587-aa79-11f9622af5a1" points="271.5 519.7 271.8 519.8 271.5 519.1 271 518.8 271.5 519.7"/>
        <polygon class="uuid-f145b040-a390-4bde-a9e5-ae6e674cb0c1" points="271.5 519.7 271.8 519.8 271.5 519.1 271 518.8 271.5 519.7"/>
        <polygon class="uuid-d7dd72f7-dc42-44cf-a60b-69bdea55724d" points="269.9 559.7 269.5 560.3 269.5 561.4 270.1 560.9 270.6 560.7 269.9 559.7"/>
        <polygon class="uuid-0c45bbfb-ba24-4a82-bb28-6981c56eb757" points="269.9 559.7 269.5 560.3 269.5 561.4 270.1 560.9 270.6 560.7 269.9 559.7"/>
        <polygon class="uuid-d7dd72f7-dc42-44cf-a60b-69bdea55724d" points="274.4 555.1 273.9 556.6 274.1 557.5 275.1 556.5 274.4 555.1"/>
        <polygon class="uuid-0c45bbfb-ba24-4a82-bb28-6981c56eb757" points="274.4 555.1 273.9 556.6 274.1 557.5 275.1 556.5 274.4 555.1"/>
        <polygon class="uuid-d7dd72f7-dc42-44cf-a60b-69bdea55724d" points="273.3 561.4 273.2 562.6 272.8 563 272.8 563.9 272.8 564.8 272.4 565.4 272 565.2 271.9 565.8 272.5 566.3 273 565.5 273.6 564.6 273.4 563.9 273.2 563.4 273.8 563.4 274.2 562.8 273.7 562.6 273.8 562.3 274.4 562.8 274.5 561.2 273.9 561.9 273.3 561.4"/>
        <polygon class="uuid-0c45bbfb-ba24-4a82-bb28-6981c56eb757" points="273.3 561.4 273.2 562.6 272.8 563 272.8 563.9 272.8 564.8 272.4 565.4 272 565.2 271.9 565.8 272.5 566.3 273 565.5 273.6 564.6 273.4 563.9 273.2 563.4 273.8 563.4 274.2 562.8 273.7 562.6 273.8 562.3 274.4 562.8 274.5 561.2 273.9 561.9 273.3 561.4"/>
        <polygon class="uuid-0f0ec599-5a47-4587-aa79-11f9622af5a1" points="270.9 551.3 271.5 552 271.6 551.5 271.3 551.1 270.9 551.3"/>
        <polygon class="uuid-f145b040-a390-4bde-a9e5-ae6e674cb0c1" points="271.3 551.1 270.9 551.3 271.5 552 271.6 551.5 271.3 551.1"/>
        <path class="uuid-d7dd72f7-dc42-44cf-a60b-69bdea55724d" d="M315.4,361.6l6.2,6.6,3.4,1.6,3.1,2.1,.7,1.6,2.7,.4,2.9,2.4,2.6,1.7,3.1-.2,5.3,2.3,1.4-.2,3.4,2.5,2.2,1.2,2.5-.4,.6,1.8v2.2l-.5,1.7-.3,1.8-.3,1.1-.9,.4-.6-.7-1,.5v.8l.6,.4v1l-.4,.4,.2,.6-.7,.5,.2,1,.7,.6v.5l.2,.6,2.6,3.9,.4,.8,.7,.3,.4,.4,1,.4s0,1.3,.2,1.3,1.4,0,1.4,0h1.1l.5,.4,1.1,.7,.9,.8,1.6,.4,.9,.5,.7,.9,2.2,1.5,1.2,.4v.7l1.2,.7,1,.8,1.2,.3,1.6,1.5,.7,1.4,1.1,1.1,.7,1.1,2.4,3.4,.8,1.7,.2,1.5-.5,1.4-.9,1-.9,1.3-1,.8v.8l-.9,1-.4,1.1-1.2,1.9-.4,1.1v4.2l.7,1.3,1,1.9,.7,.9,.5,1.8,1.7,1.5s.7,.9,.9,1.3c.2,.4,1.5,1.1,1.5,1.1l2.1,.5h.8l.2,.5,.3-.8h1l1,.6h.4v-1l.2-.3,.4,1.3,.7,5.4v.8c0,0-.2,.6-.2,1v1.7c0,.5,.2,1.2,.2,1.2v1.1l-.2,.9-.3,.8,.5,1.1-.3,1.4-.7,1.4s-.3,0-.7,.6c-.3,.7-1.4,2.6-1.4,2.6l-.9,.4-.5,1.5s-.8,.8-1.1,1.2c-.2,.4-1.2,1.7-1.2,1.7,0,0-.6,.7-.6,1.1s-.3,1.2-.3,1.2c0,0-.6-.2-.8,.2-.2,.4-.4,1.2-.4,1.2v.7l-.5,1.1-.7,.8-1.5,2.3-.9,1s-.2,.3-.6,.6c-.3,.3-.6,.3-.9,.4-.3,.2-.6,.4-.6,.4l-.3,.7s-.4,.2-.9,.5c-.5,.4-1.1,1.9-1.1,1.9,0,0-.7,.4-.9,.7-.2,.4-.7,.9-1,1.3-.3,.4-.7,1.9-.7,1.9v1l-.2,1.1-.7,.5,.6,.7s0,.4,0,1c0,.5-.6,1.3-.6,1.3,0,0-.3,.4-.7,.8-.3,.4-.7,1-.7,1,0,0-1.2,1.5-1.6,1.7-.4,.2-1.7,1-1.7,1,0,0-.6,.4-1.1,.5-.5,.2-.8,.3-1.3,.6-.5,.4-1.2,.8-1.6,.8s-.4-.2-.7,.3c-.2,.4-.3,.4-.7,.8-.4,.4-.3,.4-1,.6-.7,.3-.6,0-1.1,.4-.5,.4-.9,.9-.9,.9,0,0,0,.3-.8,.4-.7,.2-.8,0-2,.6-.8,.4-1.2,.8-2,.8-.7,0-.9,0-1.6,.3-.7,.2-.7,.4-1.5,.7-.7,.4-1.2,.4-1.2,.4l-2.5,.7-2.7,.9-2.8,1.1s-1.2,.4-2.1,.4c-.9,0-1.7,.3-2.1,.4-.4,0-1.4,.2-1.9,.4-.5,.2-.5,.6-1.5,.7-1,0-2.1,.2-2.7,.3-.6,0-1,0-1.7,.3-.7,.3-2.4,1.1-2.8,1.1s-2.4,1.1-2.4,1.1c0,0-1.6,.2-3.1,.2s-2.5,.8-3.3,.8-3.7,.5-3.7,.5c0,0-.8,.6-2.2,.8-1.3,.2-2.3,.4-2.9,.4-.6,0-1.2,.4-2.3,.5-1.1,0-.3,.2-2.9,.4-2.6,.2-5.6,1.1-5.6,1.1l-3.1-.2-2.9,.4s-1.7-.8-2-.7c-.3,0-1.3,1.4-1.7,1.3-.3,0-1.5,.6-1.5,.6l-.8-1.3-1.9,.2-2.7-.5s-1.3-.3-2-.6c-.7-.4-1.2-.4-1.5-.7-.2-.4-1.3-2.1-1.3-2.1l-1.1-1.1-1.1-.2-.9-.4-.7,.5v.7l-.4,.3v-.6l-.2-.4-.4,.9v1.3l.8,.2,.2,.8s1,.6,.3,.9c-.7,.3-.4,.8-.4,.8l.8,.9h1.2l-.7,1.1-.8,.5,.2,.7-.5,.5-.6,.3,.2,.4,.5,.2v.5l-.4,.3,.7,.7v.6l.3,.5,.4,.3,.2-.4,.5,.5-.2,.7,.6,.4h1.5v.7l.7-.3,.4,.3,1,.9,.6,.5,.4,1.3h-1.1l-.6-.3v-.3h-1v-.9l-.4-.2-.8-.5-.4-.3-.9,.2v.7h1l.8,.3v1l.7,.3,.8,.4s-.1,.3,.2,.3,.6,.1,.6,.1l.4,.4-.3,.4-.2,.9v1c.1,0-.1,.1-.2,.5,0,.3,0,.8,0,.8l-.5,.3s0,1,0,1.3c0,.3,.1,.9,0,1.3-.2,.3-.3,.9-.3,.9l.4,.6-.2,.7s-.2,0-.2,.4v1.2c0,.4,.3,.2,.3,.2v.6h-.3l.2,.4v.7l-.6,.2-.6-.4-.4-.2-.2,.5h-1.9l-.7,.7v.5l.8,.4-.7,.3v.5l.4,.7h-.6l-.2,1.1,.2,2.4,.8,.9-.8,.5s-.1,.5-.1,.7-.4,.5-.4,.5v1.4l-.7-.9-.6,.7-.4,.7-.3,1.1,.3,1.1s-.1,.3,.3,1c.4,.7,.6,.7,.6,.9s.3,1.2,.3,1.2l1.6,.5,.6,.7,1.3,.7s.2,.5,.4,.6c.3,.1,.3,.7,.3,.7v1.3l-.6,.8s-.4,0-.4,.3c0,.3,0,.6-.1,1.1,0,.5-.8,2.6-.8,2.6l-.4,1.2-.9,.8-.7,.7h-.6c0,0,.1,.7-.2,.7h-1.3l-1,.3-.3,.5-1.6,.3s-.4,1.1-.6,1.1-1,.1-1,.1c0,0,0,.2,0,.5,0,.3-.6,0-.6,0h-1.3l-3.8-5.2-3.6-2.4-1.8-.4-1.1-1h-2.5l-1.5-178.7h36.9l17.4-22,.3-1.1s.4-.9,.7-1c.3-.1,2.2-.5,2.2-.5l2.1,.8,1.8,.5,1.5,.7,6.3-8.6Z"/>
        <path class="uuid-0c45bbfb-ba24-4a82-bb28-6981c56eb757" d="M315.4,361.6l6.2,6.6,3.4,1.6,3.1,2.1,.7,1.6,2.7,.4,2.9,2.4,2.6,1.7,3.1-.2,5.3,2.3,1.4-.2,3.4,2.5,2.2,1.2,2.5-.4,.6,1.8v2.2l-.5,1.7-.3,1.8-.3,1.1-.9,.4-.6-.7-1,.5v.8l.6,.4v1l-.4,.4,.2,.6-.7,.5,.2,1,.7,.6v.5l.2,.6,2.6,3.9,.4,.8,.7,.3,.4,.4,1,.4s0,1.3,.2,1.3,1.4,0,1.4,0h1.1l.5,.4,1.1,.7,.9,.8,1.6,.4,.9,.5,.7,.9,2.2,1.5,1.2,.4v.7l1.2,.7,1,.8,1.2,.3,1.6,1.5,.7,1.4,1.1,1.1,.7,1.1,2.4,3.4,.8,1.7,.2,1.5-.5,1.4-.9,1-.9,1.3-1,.8v.8l-.9,1-.4,1.1-1.2,1.9-.4,1.1v4.2l.7,1.3,1,1.9,.7,.9,.5,1.8,1.7,1.5s.7,.9,.9,1.3c.2,.4,1.5,1.1,1.5,1.1l2.1,.5h.8l.2,.5,.3-.8h1l1,.6h.4v-1l.2-.3,.4,1.3,.7,5.4v.8c0,0-.2,.6-.2,1v1.7c0,.5,.2,1.2,.2,1.2v1.1l-.2,.9-.3,.8,.5,1.1-.3,1.4-.7,1.4s-.3,0-.7,.6c-.3,.7-1.4,2.6-1.4,2.6l-.9,.4-.5,1.5s-.8,.8-1.1,1.2c-.2,.4-1.2,1.7-1.2,1.7,0,0-.6,.7-.6,1.1s-.3,1.2-.3,1.2c0,0-.6-.2-.8,.2-.2,.4-.4,1.2-.4,1.2v.7l-.5,1.1-.7,.8-1.5,2.3-.9,1s-.2,.3-.6,.6c-.3,.3-.6,.3-.9,.4-.3,.2-.6,.4-.6,.4l-.3,.7s-.4,.2-.9,.5c-.5,.4-1.1,1.9-1.1,1.9,0,0-.7,.4-.9,.7-.2,.4-.7,.9-1,1.3-.3,.4-.7,1.9-.7,1.9v1l-.2,1.1-.7,.5,.6,.7s0,.4,0,1c0,.5-.6,1.3-.6,1.3,0,0-.3,.4-.7,.8-.3,.4-.7,1-.7,1,0,0-1.2,1.5-1.6,1.7-.4,.2-1.7,1-1.7,1,0,0-.6,.4-1.1,.5-.5,.2-.8,.3-1.3,.6-.5,.4-1.2,.8-1.6,.8s-.4-.2-.7,.3c-.2,.4-.3,.4-.7,.8-.4,.4-.3,.4-1,.6-.7,.3-.6,0-1.1,.4-.5,.4-.9,.9-.9,.9,0,0,0,.3-.8,.4-.7,.2-.8,0-2,.6-.8,.4-1.2,.8-2,.8-.7,0-.9,0-1.6,.3-.7,.2-.7,.4-1.5,.7-.7,.4-1.2,.4-1.2,.4l-2.5,.7-2.7,.9-2.8,1.1s-1.2,.4-2.1,.4c-.9,0-1.7,.3-2.1,.4-.4,0-1.4,.2-1.9,.4-.5,.2-.5,.6-1.5,.7-1,0-2.1,.2-2.7,.3-.6,0-1,0-1.7,.3-.7,.3-2.4,1.1-2.8,1.1s-2.4,1.1-2.4,1.1c0,0-1.6,.2-3.1,.2s-2.5,.8-3.3,.8-3.7,.5-3.7,.5c0,0-.8,.6-2.2,.8-1.3,.2-2.3,.4-2.9,.4-.6,0-1.2,.4-2.3,.5-1.1,0-.3,.2-2.9,.4-2.6,.2-5.6,1.1-5.6,1.1l-3.1-.2-2.9,.4s-1.7-.8-2-.7c-.3,0-1.3,1.4-1.7,1.3-.3,0-1.5,.6-1.5,.6l-.8-1.3-1.9,.2-2.7-.5s-1.3-.3-2-.6c-.7-.4-1.2-.4-1.5-.7-.2-.4-1.3-2.1-1.3-2.1l-1.1-1.1-1.1-.2-.9-.4-.7,.5v.7l-.4,.3v-.6l-.2-.4-.4,.9v1.3l.8,.2,.2,.8s1,.6,.3,.9c-.7,.3-.4,.8-.4,.8l.8,.9h1.2l-.7,1.1-.8,.5,.2,.7-.5,.5-.6,.3,.2,.4,.5,.2v.5l-.4,.3,.7,.7v.6l.3,.5,.4,.3,.2-.4,.5,.5-.2,.7,.6,.4h1.5v.7l.7-.3,.4,.3,1,.9,.6,.5,.4,1.3h-1.1l-.6-.3v-.3h-1v-.9l-.4-.2-.8-.5-.4-.3-.9,.2v.7h1l.8,.3v1l.7,.3,.8,.4s-.1,.3,.2,.3,.6,.1,.6,.1l.4,.4-.3,.4-.2,.9v1c.1,0-.1,.1-.2,.5,0,.3,0,.8,0,.8l-.5,.3s0,1,0,1.3c0,.3,.1,.9,0,1.3-.2,.3-.3,.9-.3,.9l.4,.6-.2,.7s-.2,0-.2,.4v1.2c0,.4,.3,.2,.3,.2v.6h-.3l.2,.4v.7l-.6,.2-.6-.4-.4-.2-.2,.5h-1.9l-.7,.7v.5l.8,.4-.7,.3v.5l.4,.7h-.6l-.2,1.1,.2,2.4,.8,.9-.8,.5s-.1,.5-.1,.7-.4,.5-.4,.5v1.4l-.7-.9-.6,.7-.4,.7-.3,1.1,.3,1.1s-.1,.3,.3,1c.4,.7,.6,.7,.6,.9s.3,1.2,.3,1.2l1.6,.5,.6,.7,1.3,.7s.2,.5,.4,.6c.3,.1,.3,.7,.3,.7v1.3l-.6,.8s-.4,0-.4,.3c0,.3,0,.6-.1,1.1,0,.5-.8,2.6-.8,2.6l-.4,1.2-.9,.8-.7,.7h-.6c0,0,.1,.7-.2,.7h-1.3l-1,.3-.3,.5-1.6,.3s-.4,1.1-.6,1.1-1,.1-1,.1c0,0,0,.2,0,.5,0,.3-.6,0-.6,0h-1.3l-3.8-5.2-3.6-2.4-1.8-.4-1.1-1h-2.5l-1.5-178.7h36.9l17.4-22,.3-1.1s.4-.9,.7-1c.3-.1,2.2-.5,2.2-.5l2.1,.8,1.8,.5,1.5,.7,6.3-8.6Z"/>
        <polygon class="uuid-d7dd72f7-dc42-44cf-a60b-69bdea55724d" points="357.5 389.6 357.8 389.9 358 390.2 358.3 389.9 358.1 389.5 357.8 388.9 357.5 389.6"/>
        <polygon class="uuid-0c45bbfb-ba24-4a82-bb28-6981c56eb757" points="357.8 388.9 357.5 389.6 357.8 389.9 358 390.2 358.3 389.9 358.1 389.5 357.8 388.9"/>
        <path class="uuid-0f0ec599-5a47-4587-aa79-11f9622af5a1" d="M418.1,199.7l-.9,1.6-.6,1.8s.1,1.6,.1,2.3-.1,2.6-.1,2.9,1,1.5,1,1.5l3.2,4.3s0,1.6,0,1.9c.1,.3,1.2,2.1,1.8,2.6,.5,.5,1.6,2.4,1.6,2.4,0,0,1,.8,1.8,.3,.7-.4,2.4,.4,2.4,.4l1.4-1.2,1.6-2.5,2.8-2.5,1.8-.8h2.5l1.9-2.6,1.7-.5,.6-1.8,2.7-2.3,2.7-1.4,2.7-1,1.7-.8,2-.8,.3-.4h2.2l1.4-.2,1.8-3.4,1.9-.4,1.4-.6v-.8l1.4-1.2,1.7-.4,.7-.8,1.4,1.3,1-.3v-1.2l2.5-2.8,.9-1.7,.2-1.5-.3-.7-.5-.5v-1.6l-.5-.8v-2.3l.8-4.6,.5-1.2,.8-1.9s-.1-2.8-.1-3.2v-3l-1.6-2.8-1.4-1.6s0-1.8,0-2.3-.2-3.5-.2-3.8,.2-1.6,0-1.9c-.3-.2-1.7-2.1-1.7-2.1l-1.2-2.1-.8-1.4-1,.3s-1,.4-1.3,.2c-.3-.2-1.2-1-1.2-1,0,0-.3-.2-.6-.1-.3,0-1.6,1.4-1.6,1.4l-.8,.5-1-.2s-.4-.8-.7-.5c-.3,.3-1.9,1.2-1.9,1.2l-1.9-1-.7-.7h-1.6s.1,.9,.1,1.3-.2,1.5-.5,2.1c-.3,.5-1.2,2-1.2,2,0,0,0,1.1,0,1.7,.1,.6,1.4,1.9,1.4,1.9,0,0,0,1.3-.3,1.6-.2,.3-.8,1.5-.8,1.5,0,0-.6,1.1-.6,1.7,0,.5,0,1,0,1.6v1.7c0,.9,0,1.4-.1,1.7,0,.3-.5,1.9-.6,2.3-.1,.3-.4,1-.5,1.9-.1,.8-.4,1.1-.6,1.4-.2,.3-.9,1.4-.9,1.4,0,0-.6,.8-.8,1.1-.2,.3-.6,.9-.6,.9,0,0,0,.3,0,1v1.3c0,.4,0,.8,0,.8l-1.2,.2-1.5-.2s-1.1,1.2-1.1,1.6,.3,.7,.3,.7l-1,1.4h-1.9c0,0-1.2,.8-1.5,.9-.3,.1-.8,.3-1.1,.8-.3,.6-.3,2.6-.3,2.6l-1.2,.2s-4.4-.1-4.7,0c-.3,.1-.9,.6-.9,1s.6,2.6,.6,2.6h-2.1l-1,1.2-.5,1.3s-.8,0-.8,.4c0,.4,.6,1.2,.7,1.5,0,.3-1.2,1.2-1.4,1.4-.3,.2-.6,.8-1.2,1-.6,.2-1.3,.5-1.7,.2s-1.6-1-1.6-1l-2.4-1.5-.6,1Z"/>
        <path class="uuid-070e77eb-c482-43fc-ac9d-d947328b66fb" d="M418.1,199.7l-.9,1.6-.6,1.8s.1,1.6,.1,2.3-.1,2.6-.1,2.9,1,1.5,1,1.5l3.2,4.3s0,1.6,0,1.9c.1,.3,1.2,2.1,1.8,2.6,.5,.5,1.6,2.4,1.6,2.4,0,0,1,.8,1.8,.3,.7-.4,2.4,.4,2.4,.4l1.4-1.2,1.6-2.5,2.8-2.5,1.8-.8h2.5l1.9-2.6,1.7-.5,.6-1.8,2.7-2.3,2.7-1.4,2.7-1,1.7-.8,2-.8,.3-.4h2.2l1.4-.2,1.8-3.4,1.9-.4,1.4-.6v-.8l1.4-1.2,1.7-.4,.7-.8,1.4,1.3,1-.3v-1.2l2.5-2.8,.9-1.7,.2-1.5-.3-.7-.5-.5v-1.6l-.5-.8v-2.3l.8-4.6,.5-1.2,.8-1.9s-.1-2.8-.1-3.2v-3l-1.6-2.8-1.4-1.6s0-1.8,0-2.3-.2-3.5-.2-3.8,.2-1.6,0-1.9c-.3-.2-1.7-2.1-1.7-2.1l-1.2-2.1-.8-1.4-1,.3s-1,.4-1.3,.2c-.3-.2-1.2-1-1.2-1,0,0-.3-.2-.6-.1-.3,0-1.6,1.4-1.6,1.4l-.8,.5-1-.2s-.4-.8-.7-.5c-.3,.3-1.9,1.2-1.9,1.2l-1.9-1-.7-.7h-1.6s.1,.9,.1,1.3-.2,1.5-.5,2.1c-.3,.5-1.2,2-1.2,2,0,0,0,1.1,0,1.7,.1,.6,1.4,1.9,1.4,1.9,0,0,0,1.3-.3,1.6-.2,.3-.8,1.5-.8,1.5,0,0-.6,1.1-.6,1.7,0,.5,0,1,0,1.6v1.7c0,.9,0,1.4-.1,1.7,0,.3-.5,1.9-.6,2.3-.1,.3-.4,1-.5,1.9-.1,.8-.4,1.1-.6,1.4-.2,.3-.9,1.4-.9,1.4,0,0-.6,.8-.8,1.1-.2,.3-.6,.9-.6,.9,0,0,0,.3,0,1v1.3c0,.4,0,.8,0,.8l-1.2,.2-1.5-.2s-1.1,1.2-1.1,1.6,.3,.7,.3,.7l-1,1.4h-1.9c0,0-1.2,.8-1.5,.9-.3,.1-.8,.3-1.1,.8-.3,.6-.3,2.6-.3,2.6l-1.2,.2s-4.4-.1-4.7,0c-.3,.1-.9,.6-.9,1s.6,2.6,.6,2.6h-2.1l-1,1.2-.5,1.3s-.8,0-.8,.4c0,.4,.6,1.2,.7,1.5,0,.3-1.2,1.2-1.4,1.4-.3,.2-.6,.8-1.2,1-.6,.2-1.3,.5-1.7,.2s-1.6-1-1.6-1l-2.4-1.5-.6,1Z"/>
        <path class="uuid-d7dd72f7-dc42-44cf-a60b-69bdea55724d" d="M352.9,398.5h.2v.2h.3v.2h.3v.3l.3,.3,.2,.2h.1s0,0,0,0,0,0,0,0h0c0,0,0,.1,0,.1,0,0,0,0,0,0,0,0,0,0,0,0,0,0,0,0,0,0h0s0,0,0,0c0,0,0,0,0,0,0,0,0,0,0,0,0,0,0,0,0,0h0v.2h.2v-.3c-.1,0-.1,0-.1,0h.2v.2h.2v.2h.3v.2h0v.2h-.2v.2h0v.7h0s0,0,0,0h0s0,0,0,0c0,0,0,0,0,0,0,0,0,0,0,0,0,0,0,0,0,0,0,0,0,0,0,0,0,0,0,0,0,0h0s0,0,0,0c0,0,0,0,0,0h0s0,0,0,0h0s0,0,0,0c0,0,0,0,0,0,0,0,0,0,0,0,0,0,0,0,0,0,0,0,0,0,0,0,0,0,0,0,0,0,0,0,0,0,0,0,0,0,0,0,0,0,0,0,0,0,0,0,0,0,0,0,0,0,0,0,0,0,0,0,0,0,0,0,0,0,0,0,0,0,0,0h0s0,0,0,0c0,0,0,0,0,0,0,0,0,0,0,0,0,0,0,0,0,0h0s0,0,0,0c0,0,0,0,0,0,0,0,0,0,0,0,0,0,0,0,0,0,0,0,0,0,0,0,0,0,0,0,0,0,0,0,0,0,0,0,0,0,0,0,0,0,0,0,0,0,0,0,0,0,0,0,0,0,0,0,0,0,0,0,0,0,0,0,0,0,0,0,0,0,0,0,0,0,0,0,0,0,0,0,0,0,0,0,0,0,0,0,0,0h0l-.2-.3h0l.2,.3h-.1c0,.1,0,.1,0,.1,0,0,0,0,0,0,0,0,0,0,0,0,0,0,0,0,0,0,0,0,0,0,0,0,0,0,0,0,0,0,0,0,0,0,0,0,0,0,0,0,0,0s0,0,0,0c0,0,0,0,0,0,0,0,0,0,0,0,0,0,0,0,0,0,0,0,0,0,0,0,0,0,0,0,0,0,0,0,0,0,0,0,0,0,0,0,0,0,0,0,0,0,0,0,0,0,0,0,0,0,0,0,0,0,0,0,0,0,0,0,0,0,0,0,0,0,0,0,0,0,0,0,0,0,0,0,0,0,0,0,0,0,0,0,0,0,0,0,0,0,0,0h-.3s0,0,0,0c0,0,0,0,0,0,0,0,0,0,0,0,0,0,0,0,0,0,0,0,0,0,0,0h0s0,0,0,0c0,0,0,0,0,0h-.5l-.5,.5-.5,.5-.5-.6-.9-1.1v-1.6l1.1-1.4,.9-.2Z"/>
        <path class="uuid-0c45bbfb-ba24-4a82-bb28-6981c56eb757" d="M352.9,398.5h.2v.2h.3v.2h.3v.3l.3,.3,.2,.2h.1s0,0,0,0,0,0,0,0h0c0,0,0,.1,0,.1,0,0,0,0,0,0,0,0,0,0,0,0,0,0,0,0,0,0h0s0,0,0,0c0,0,0,0,0,0,0,0,0,0,0,0,0,0,0,0,0,0h0v.2h.2v-.3c-.1,0-.1,0-.1,0h.2v.2h.2v.2h.3v.2h0v.2h-.2v.2h0v.7h0s0,0,0,0h0s0,0,0,0c0,0,0,0,0,0,0,0,0,0,0,0,0,0,0,0,0,0,0,0,0,0,0,0,0,0,0,0,0,0h0s0,0,0,0c0,0,0,0,0,0h0s0,0,0,0h0s0,0,0,0c0,0,0,0,0,0,0,0,0,0,0,0,0,0,0,0,0,0,0,0,0,0,0,0,0,0,0,0,0,0,0,0,0,0,0,0,0,0,0,0,0,0,0,0,0,0,0,0,0,0,0,0,0,0,0,0,0,0,0,0,0,0,0,0,0,0,0,0,0,0,0,0h0s0,0,0,0c0,0,0,0,0,0,0,0,0,0,0,0,0,0,0,0,0,0h0s0,0,0,0c0,0,0,0,0,0,0,0,0,0,0,0,0,0,0,0,0,0,0,0,0,0,0,0,0,0,0,0,0,0,0,0,0,0,0,0,0,0,0,0,0,0,0,0,0,0,0,0,0,0,0,0,0,0,0,0,0,0,0,0,0,0,0,0,0,0,0,0,0,0,0,0,0,0,0,0,0,0,0,0,0,0,0,0,0,0,0,0,0,0h0l-.2-.3h0l.2,.3h-.1c0,.1,0,.1,0,.1,0,0,0,0,0,0,0,0,0,0,0,0,0,0,0,0,0,0,0,0,0,0,0,0,0,0,0,0,0,0,0,0,0,0,0,0,0,0,0,0,0,0s0,0,0,0c0,0,0,0,0,0,0,0,0,0,0,0,0,0,0,0,0,0,0,0,0,0,0,0,0,0,0,0,0,0,0,0,0,0,0,0,0,0,0,0,0,0,0,0,0,0,0,0,0,0,0,0,0,0,0,0,0,0,0,0,0,0,0,0,0,0,0,0,0,0,0,0,0,0,0,0,0,0,0,0,0,0,0,0,0,0,0,0,0,0,0,0,0,0,0,0h-.3s0,0,0,0c0,0,0,0,0,0,0,0,0,0,0,0,0,0,0,0,0,0,0,0,0,0,0,0h0s0,0,0,0c0,0,0,0,0,0h-.5l-.5,.5-.5,.5-.5-.6-.9-1.1v-1.6l1.1-1.4,.9-.2Z"/>
        <path class="uuid-0f0ec599-5a47-4587-aa79-11f9622af5a1" d="M273.4,280.6l-10.6-.5c0-.7-.4-1.3-.6-1.9-.2-.7,0-1.7-.2-2.2,3-5.3-1.4-4.5-3.8-5.7-1.8-1.2-1.2-3.6-1.5-5.4h-10.9c-2.3,0-3.6-.9-4.4-2.2,.1-1.4-.6-1.2-1.1-1.5-4.7,1.5-5.1,1.2-7.1-1-2.2-.6-1.9,2.2-4.4-.4l-3.5-.9-4.4,.2-5.1,.3-5.9,.9,.2-3.3-1.2-2.5c3.3-3.2,.2-1.2,.4-5.2,.7-1.7-.7-2.6-2-3.8v-3.3c-.2-.7-3.2-3.2-4.9-4.8l.4-4.5c.2-2.8,.3-5.5,.5-8.3l-1.1-3.4-1.2-1.1-.3-4.4-.3-1.5c2.1-1,3.8-.9,6.7-4.8l-1.9-2.4,1.2-8.8c1.1,0,2.3,.1,2.3-2.9,.3-2.1,1.5-5.9,2.1-9.3,.7-1.5,3.3-2.4,2.5-4.6-.1-.4,.2-.9,0-1.4,2.3-.7,1.8-3.4,1.5-6l.6-6.3,2.6-6.1s.9-1.5,1.2-1.8c.3-.4,.2-3.3,.2-3.3l.8-2.7,1.3-.3,1.5,.6,2.9,.5,.3-1.5,5.2-.6,5.3,.8,3.1,.7,2.6-3.3,3.2,.2,37.1-.3,.5,65.5c-2.7,21.5-5.4,43-9.7,64.5"/>
        <path class="uuid-070e77eb-c482-43fc-ac9d-d947328b66fb" d="M273.4,280.6l-10.6-.5c0-.7-.4-1.3-.6-1.9-.2-.7,0-1.7-.2-2.2,3-5.3-1.4-4.5-3.8-5.7-1.8-1.2-1.2-3.6-1.5-5.4h-10.9c-2.3,0-3.6-.9-4.4-2.2,.1-1.4-.6-1.2-1.1-1.5-4.7,1.5-5.1,1.2-7.1-1-2.2-.6-1.9,2.2-4.4-.4l-3.5-.9-4.4,.2-5.1,.3-5.9,.9,.2-3.3-1.2-2.5c3.3-3.2,.2-1.2,.4-5.2,.7-1.7-.7-2.6-2-3.8v-3.3c-.2-.7-3.2-3.2-4.9-4.8l.4-4.5c.2-2.8,.3-5.5,.5-8.3l-1.1-3.4-1.2-1.1-.3-4.4-.3-1.5c2.1-1,3.8-.9,6.7-4.8l-1.9-2.4,1.2-8.8c1.1,0,2.3,.1,2.3-2.9,.3-2.1,1.5-5.9,2.1-9.3,.7-1.5,3.3-2.4,2.5-4.6-.1-.4,.2-.9,0-1.4,2.3-.7,1.8-3.4,1.5-6l.6-6.3,2.6-6.1s.9-1.5,1.2-1.8c.3-.4,.2-3.3,.2-3.3l.8-2.7,1.3-.3,1.5,.6,2.9,.5,.3-1.5,5.2-.6,5.3,.8,3.1,.7,2.6-3.3,3.2,.2,37.1-.3,.5,65.5c-2.7,21.5-5.4,43-9.7,64.5Z"/>
      </g>
      <g>
        <line class="uuid-18f23bfa-6ea4-43f6-8a88-5371b64a926a" x1="187.4" y1="88.5" x2="427.7" y2="22.3"/>
        <rect class="uuid-19ffc513-bed9-4d45-9cb0-b0e8b9af4af1" x="390.5" width="74.5" height="22.3"/>
        <g>
          <path class="uuid-647185f8-5f09-4e47-93c3-dd0401e52fe7" d="M419.3,13.6c-1,0-1.7-.4-2.1-1.2l1.1-.6c.2,.4,.5,.6,1,.6s.6,0,.7-.2c.2-.2,.2-.4,.2-.6V7.2h1.2v4.3c0,.7-.2,1.2-.6,1.5s-.9,.5-1.6,.5Z"/>
          <path class="uuid-647185f8-5f09-4e47-93c3-dd0401e52fe7" d="M425.5,9h1.2v4.5h-1.2v-.5c-.3,.4-.7,.6-1.3,.6s-.9-.2-1.2-.5-.5-.8-.5-1.4v-2.8h1.2v2.6c0,.3,0,.5,.2,.7s.4,.2,.6,.2,.5,0,.7-.3c.2-.2,.3-.5,.3-.8v-2.4Z"/>
          <path class="uuid-647185f8-5f09-4e47-93c3-dd0401e52fe7" d="M427.9,13.6v-4.6h1.2v4.6c0,.7-.2,1.1-.5,1.4-.3,.3-.8,.4-1.5,.4v-1.1c.3,0,.5,0,.6-.1s.2-.3,.2-.6Zm.6-5.1c-.2,0-.4,0-.5-.2-.1-.1-.2-.3-.2-.5s0-.4,.2-.5c.1-.1,.3-.2,.5-.2s.4,0,.5,.2c.1,.1,.2,.3,.2,.5s0,.4-.2,.5c-.1,.1-.3,.2-.5,.2Z"/>
          <path class="uuid-647185f8-5f09-4e47-93c3-dd0401e52fe7" d="M433.1,9h1.2v4.5h-1.2v-.5c-.3,.4-.7,.6-1.3,.6s-.9-.2-1.2-.5-.5-.8-.5-1.4v-2.8h1.2v2.6c0,.3,0,.5,.2,.7s.4,.2,.6,.2,.5,0,.7-.3c.2-.2,.3-.5,.3-.8v-2.4Z"/>
          <path class="uuid-647185f8-5f09-4e47-93c3-dd0401e52fe7" d="M438.3,9h1.2l-1.6,4.5c-.2,.6-.5,1.1-.9,1.4s-.9,.4-1.4,.4v-1.1c.3,0,.6,0,.7-.2,.2-.1,.3-.4,.4-.7l-1.8-4.4h1.3l1.2,3,1-3Z"/>
        </g>
      </g>
      <g>
        <line class="uuid-18f23bfa-6ea4-43f6-8a88-5371b64a926a" x1="201.3" y1="140.4" x2="37.2" y2="94.7"/>
        <rect class="uuid-19ffc513-bed9-4d45-9cb0-b0e8b9af4af1" x=".3" y="72.4" width="74.5" height="22.3"/>
        <g>
          <path class="uuid-647185f8-5f09-4e47-93c3-dd0401e52fe7" d="M29.7,86.1c-.6,0-1.1-.1-1.6-.4-.4-.3-.7-.7-.9-1.1l1.1-.6c.2,.6,.7,1,1.4,1s.6,0,.8-.2,.2-.3,.2-.5,0-.4-.3-.5c-.2-.1-.6-.3-1.1-.4-.3,0-.5-.2-.7-.3-.2,0-.4-.2-.6-.3-.2-.1-.3-.3-.4-.5-.1-.2-.2-.5-.2-.8,0-.6,.2-1,.6-1.4,.4-.3,.9-.5,1.5-.5s1,.1,1.3,.4,.7,.6,.9,1l-1,.6c-.3-.5-.7-.8-1.2-.8s-.5,0-.6,.2c-.1,.1-.2,.3-.2,.5s0,.4,.2,.5,.5,.3,.9,.4c.2,0,.3,.1,.4,.1s.2,0,.4,.2c.2,0,.3,.1,.4,.2,0,0,.2,.1,.3,.2,.1,.1,.2,.2,.3,.3,0,.1,.1,.2,.2,.4s0,.3,0,.5c0,.6-.2,1-.6,1.4s-1,.5-1.7,.5Z"/>
          <path class="uuid-647185f8-5f09-4e47-93c3-dd0401e52fe7" d="M36.2,81.5h1.2v4.5h-1.2v-.5c-.3,.4-.8,.7-1.5,.7s-1.1-.2-1.5-.7-.6-1-.6-1.7,.2-1.2,.6-1.7,.9-.7,1.5-.7,1.1,.2,1.5,.7v-.5Zm-2.1,3.2c.2,.2,.5,.4,.9,.4s.7-.1,.9-.4,.4-.5,.4-.9-.1-.7-.4-.9-.5-.4-.9-.4-.7,.1-.9,.4c-.2,.2-.4,.5-.4,.9s.1,.7,.4,.9Z"/>
          <path class="uuid-647185f8-5f09-4e47-93c3-dd0401e52fe7" d="M38.4,86v-6.6h1.2v6.6h-1.2Z"/>
          <path class="uuid-647185f8-5f09-4e47-93c3-dd0401e52fe7" d="M43.2,82.6h-1v1.9c0,.2,0,.3,.1,.3s.2,.1,.3,.1c.2,0,.3,0,.6,0v1.1c-.8,0-1.4,0-1.7-.2-.3-.2-.5-.7-.5-1.3v-1.9h-.8v-1.1h.8v-.9l1.2-.4v1.3h1v1.1Z"/>
          <path class="uuid-647185f8-5f09-4e47-93c3-dd0401e52fe7" d="M47.5,81.5h1.2v4.5h-1.2v-.5c-.3,.4-.8,.7-1.5,.7s-1.1-.2-1.5-.7-.6-1-.6-1.7,.2-1.2,.6-1.7,.9-.7,1.5-.7,1.1,.2,1.5,.7v-.5Zm-2.1,3.2c.2,.2,.5,.4,.9,.4s.7-.1,.9-.4,.4-.5,.4-.9-.1-.7-.4-.9-.5-.4-.9-.4-.7,.1-.9,.4c-.2,.2-.4,.5-.4,.9s.1,.7,.4,.9Z"/>
        </g>
      </g>
      <g>
        <line class="uuid-18f23bfa-6ea4-43f6-8a88-5371b64a926a" x1="241.9" y1="335.3" x2="37.3" y2="248.1"/>
        <rect class="uuid-19ffc513-bed9-4d45-9cb0-b0e8b9af4af1" y="225.8" width="74.5" height="22.3"/>
        <g>
          <path class="uuid-647185f8-5f09-4e47-93c3-dd0401e52fe7" d="M23.2,239.5c-.9,0-1.7-.3-2.3-.9s-.9-1.4-.9-2.3,.3-1.7,.9-2.3,1.4-.9,2.3-.9,1.1,.1,1.6,.4c.5,.3,.9,.6,1.1,1.1l-1.1,.6c-.2-.3-.4-.5-.7-.7s-.6-.2-1-.2c-.6,0-1.1,.2-1.5,.6-.4,.4-.6,.9-.6,1.5s.2,1.1,.6,1.5,.9,.6,1.5,.6,.7,0,1-.2,.5-.4,.7-.7l1.1,.6c-.3,.5-.6,.8-1.1,1.1-.5,.3-1,.4-1.6,.4Z"/>
          <path class="uuid-647185f8-5f09-4e47-93c3-dd0401e52fe7" d="M30.6,238.8c-.5,.5-1,.7-1.7,.7s-1.2-.2-1.7-.7-.7-1-.7-1.7,.2-1.2,.7-1.7,1-.7,1.7-.7,1.2,.2,1.7,.7,.7,1,.7,1.7-.2,1.2-.7,1.7Zm-2.6-.8c.2,.2,.5,.4,.9,.4s.6-.1,.9-.4c.2-.2,.4-.5,.4-.9s-.1-.7-.4-.9c-.2-.2-.5-.4-.9-.4s-.6,.1-.9,.4c-.2,.2-.3,.5-.3,.9s.1,.7,.3,.9Zm.1-3.8h1.1l1-1.2h-1.4l-.7,1.2Z"/>
          <path class="uuid-647185f8-5f09-4e47-93c3-dd0401e52fe7" d="M33.2,235.7c.1-.3,.3-.5,.5-.6s.5-.2,.8-.2v1.3c-.4,0-.7,0-.9,.2-.3,.2-.4,.5-.4,.9v2.2h-1.2v-4.5h1.2v.8Z"/>
          <path class="uuid-647185f8-5f09-4e47-93c3-dd0401e52fe7" d="M38.7,233.1h1.2v6.3h-1.2v-.5c-.3,.4-.8,.7-1.5,.7s-1.1-.2-1.6-.7-.6-1-.6-1.7,.2-1.2,.6-1.7,.9-.7,1.6-.7,1.1,.2,1.5,.7v-2.3Zm-2.1,5c.2,.2,.5,.4,.9,.4s.7-.1,.9-.4c.2-.2,.4-.5,.4-.9s-.1-.7-.4-.9c-.2-.2-.5-.4-.9-.4s-.7,.1-.9,.4c-.2,.2-.4,.5-.4,.9s.1,.7,.4,.9Z"/>
          <path class="uuid-647185f8-5f09-4e47-93c3-dd0401e52fe7" d="M44.7,238.8c-.5,.5-1,.7-1.7,.7s-1.2-.2-1.7-.7-.7-1-.7-1.7,.2-1.2,.7-1.7,1-.7,1.7-.7,1.2,.2,1.7,.7,.7,1,.7,1.7-.2,1.2-.7,1.7Zm-2.6-.8c.2,.2,.5,.4,.9,.4s.6-.1,.9-.4c.2-.2,.4-.5,.4-.9s-.1-.7-.4-.9c-.2-.2-.5-.4-.9-.4s-.6,.1-.9,.4c-.2,.2-.3,.5-.3,.9s.1,.7,.3,.9Z"/>
          <path class="uuid-647185f8-5f09-4e47-93c3-dd0401e52fe7" d="M48.9,234.8c.6,0,1.1,.2,1.6,.7,.4,.5,.6,1,.6,1.7s-.2,1.2-.6,1.7c-.4,.5-.9,.7-1.6,.7s-1.1-.2-1.5-.7v.5h-1.2v-6.3h1.2v2.3c.3-.4,.8-.7,1.5-.7Zm-1.1,3.3c.2,.2,.5,.4,.9,.4s.7-.1,.9-.4c.2-.2,.4-.5,.4-.9s-.1-.7-.4-.9c-.2-.2-.5-.4-.9-.4s-.7,.1-.9,.4c-.2,.2-.4,.5-.4,.9s.1,.7,.4,.9Z"/>
          <path class="uuid-647185f8-5f09-4e47-93c3-dd0401e52fe7" d="M55.3,234.9h1.2v4.5h-1.2v-.5c-.3,.4-.8,.7-1.5,.7s-1.1-.2-1.5-.7-.6-1-.6-1.7,.2-1.2,.6-1.7,.9-.7,1.5-.7,1.1,.2,1.5,.7v-.5Zm-2.1,3.2c.2,.2,.5,.4,.9,.4s.7-.1,.9-.4,.4-.5,.4-.9-.1-.7-.4-.9-.5-.4-.9-.4-.7,.1-.9,.4c-.2,.2-.4,.5-.4,.9s.1,.7,.4,.9Z"/>
        </g>
      </g>
      <g>
        <line class="uuid-18f23bfa-6ea4-43f6-8a88-5371b64a926a" x1="301.4" y1="299.8" x2="427.7" y2="138.3"/>
        <rect class="uuid-19ffc513-bed9-4d45-9cb0-b0e8b9af4af1" x="390.5" y="115.9" width="74.5" height="22.3"/>
        <g>
          <path class="uuid-647185f8-5f09-4e47-93c3-dd0401e52fe7" d="M412.6,129.7c-.6,0-1.1-.1-1.6-.4-.4-.3-.7-.7-.9-1.1l1.1-.6c.2,.6,.7,1,1.4,1s.6,0,.8-.2,.2-.3,.2-.5,0-.4-.3-.5c-.2-.1-.6-.3-1.1-.4-.3,0-.5-.2-.7-.3-.2,0-.4-.2-.6-.3-.2-.1-.3-.3-.4-.5-.1-.2-.2-.5-.2-.8,0-.6,.2-1,.6-1.4,.4-.3,.9-.5,1.5-.5s1,.1,1.3,.4,.7,.6,.9,1l-1,.6c-.3-.5-.7-.8-1.2-.8s-.5,0-.6,.2c-.1,.1-.2,.3-.2,.5s0,.4,.2,.5,.5,.3,.9,.4c.2,0,.3,.1,.4,.1s.2,0,.4,.2c.2,0,.3,.1,.4,.2,0,0,.2,.1,.3,.2,.1,.1,.2,.2,.3,.3,0,.1,.1,.2,.2,.4s0,.3,0,.5c0,.6-.2,1-.6,1.4s-1,.5-1.7,.5Z"/>
          <path class="uuid-647185f8-5f09-4e47-93c3-dd0401e52fe7" d="M419,125h1.2v4.5h-1.2v-.5c-.3,.4-.8,.7-1.5,.7s-1.1-.2-1.5-.7-.6-1-.6-1.7,.2-1.2,.6-1.7,.9-.7,1.5-.7,1.1,.2,1.5,.7v-.5Zm-2.1,3.2c.2,.2,.5,.4,.9,.4s.7-.1,.9-.4,.4-.5,.4-.9-.1-.7-.4-.9-.5-.4-.9-.4-.7,.1-.9,.4c-.2,.2-.4,.5-.4,.9s.1,.7,.4,.9Z"/>
          <path class="uuid-647185f8-5f09-4e47-93c3-dd0401e52fe7" d="M423.7,124.9c.5,0,.9,.2,1.2,.5,.3,.3,.5,.8,.5,1.4v2.8h-1.2v-2.6c0-.3,0-.5-.2-.7s-.4-.2-.6-.2-.5,0-.7,.3c-.2,.2-.3,.5-.3,.8v2.4h-1.2v-4.5h1.2v.5c.3-.4,.7-.6,1.3-.6Z"/>
          <path class="uuid-647185f8-5f09-4e47-93c3-dd0401e52fe7" d="M429,126.1h-1v1.9c0,.2,0,.3,.1,.3s.2,.1,.3,.1c.2,0,.3,0,.6,0v1.1c-.8,0-1.4,0-1.7-.2-.3-.2-.5-.7-.5-1.3v-1.9h-.8v-1.1h.8v-.9l1.2-.4v1.3h1v1.1Z"/>
          <path class="uuid-647185f8-5f09-4e47-93c3-dd0401e52fe7" d="M433.3,125h1.2v4.5h-1.2v-.5c-.3,.4-.8,.7-1.5,.7s-1.1-.2-1.5-.7-.6-1-.6-1.7,.2-1.2,.6-1.7,.9-.7,1.5-.7,1.1,.2,1.5,.7v-.5Zm-2.1,3.2c.2,.2,.5,.4,.9,.4s.7-.1,.9-.4,.4-.5,.4-.9-.1-.7-.4-.9-.5-.4-.9-.4-.7,.1-.9,.4c-.2,.2-.4,.5-.4,.9s.1,.7,.4,.9Z"/>
          <path class="uuid-647185f8-5f09-4e47-93c3-dd0401e52fe7" d="M441.6,124.4h-2.5v1.5h2.4v1.2h-2.4v2.4h-1.2v-6.3h3.8v1.2Z"/>
          <path class="uuid-647185f8-5f09-4e47-93c3-dd0401e52fe7" d="M443.4,127.8c.2,.6,.6,.8,1.3,.8s.8-.2,1-.5l.9,.5c-.4,.6-1.1,1-2,1s-1.3-.2-1.8-.7c-.4-.5-.7-1-.7-1.7s.2-1.2,.7-1.7,1-.7,1.7-.7,1.2,.2,1.6,.7c.4,.5,.6,1,.6,1.7s0,.3,0,.5h-3.4Zm0-.9h2.3c0-.3-.2-.5-.4-.7-.2-.1-.4-.2-.7-.2s-.6,0-.8,.2c-.2,.2-.3,.4-.4,.7Z"/>
        </g>
      </g>
      <g>
        <line class="uuid-18f23bfa-6ea4-43f6-8a88-5371b64a926a" x1="319.5" y1="454.8" x2="428.2" y2="325.8"/>
        <rect class="uuid-19ffc513-bed9-4d45-9cb0-b0e8b9af4af1" x="380.1" y="303.5" width="96.1" height="22.3"/>
        <g>
          <path class="uuid-647185f8-5f09-4e47-93c3-dd0401e52fe7" d="M405.1,313.8c.6,.3,.8,.8,.8,1.4s-.2,1-.6,1.3c-.4,.3-.8,.5-1.4,.5h-2.7v-6.3h2.5c.5,0,1,.2,1.4,.5s.6,.8,.6,1.3-.2,.9-.6,1.3Zm-1.3-1.9h-1.2v1.4h1.2c.2,0,.4,0,.5-.2s.2-.3,.2-.5,0-.4-.2-.5c-.1-.1-.3-.2-.5-.2Zm.2,4c.2,0,.4,0,.5-.2,.1-.1,.2-.3,.2-.5s0-.4-.2-.5c-.1-.1-.3-.2-.5-.2h-1.4v1.5h1.4Z"/>
          <path class="uuid-647185f8-5f09-4e47-93c3-dd0401e52fe7" d="M409.7,312.6h1.2v4.5h-1.2v-.5c-.3,.4-.7,.6-1.3,.6s-.9-.2-1.2-.5-.5-.8-.5-1.4v-2.8h1.2v2.6c0,.3,0,.5,.2,.7s.4,.2,.6,.2,.5,0,.7-.3c.2-.2,.3-.5,.3-.8v-2.4Z"/>
          <path class="uuid-647185f8-5f09-4e47-93c3-dd0401e52fe7" d="M412.9,315.3c.2,.6,.6,.8,1.3,.8s.8-.2,1-.5l.9,.5c-.4,.6-1.1,1-2,1s-1.3-.2-1.8-.7c-.4-.5-.7-1-.7-1.7s.2-1.2,.7-1.7,1-.7,1.7-.7,1.2,.2,1.6,.7c.4,.5,.6,1,.6,1.7s0,.3,0,.5h-3.4Zm0-.9h2.3c0-.3-.2-.5-.4-.7-.2-.1-.4-.2-.7-.2s-.6,0-.8,.2c-.2,.2-.3,.4-.4,.7Z"/>
          <path class="uuid-647185f8-5f09-4e47-93c3-dd0401e52fe7" d="M419.6,312.4c.5,0,.9,.2,1.2,.5,.3,.3,.5,.8,.5,1.4v2.8h-1.2v-2.6c0-.3,0-.5-.2-.7s-.4-.2-.6-.2-.5,0-.7,.3c-.2,.2-.3,.5-.3,.8v2.4h-1.2v-4.5h1.2v.5c.3-.4,.7-.6,1.3-.6Z"/>
          <path class="uuid-647185f8-5f09-4e47-93c3-dd0401e52fe7" d="M426.1,316.5c-.5,.5-1,.7-1.7,.7s-1.2-.2-1.7-.7-.7-1-.7-1.7,.2-1.2,.7-1.7,1-.7,1.7-.7,1.2,.2,1.7,.7,.7,1,.7,1.7-.2,1.2-.7,1.7Zm-2.6-.8c.2,.2,.5,.4,.9,.4s.6-.1,.9-.4c.2-.2,.4-.5,.4-.9s-.1-.7-.4-.9c-.2-.2-.5-.4-.9-.4s-.6,.1-.9,.4c-.2,.2-.3,.5-.3,.9s.1,.7,.3,.9Z"/>
          <path class="uuid-647185f8-5f09-4e47-93c3-dd0401e52fe7" d="M428.7,313.8c0,.1,0,.2,.2,.3,.2,0,.4,.1,.6,.2,.2,0,.5,.1,.7,.2,.2,0,.4,.2,.6,.4s.2,.5,.2,.8c0,.5-.2,.8-.5,1.1-.3,.2-.8,.4-1.3,.4-.9,0-1.6-.4-1.9-1.1l1-.6c.1,.4,.4,.6,.9,.6s.6-.1,.6-.4,0-.2-.2-.3c-.2,0-.4-.1-.6-.2-.2,0-.5-.1-.7-.2-.2,0-.4-.2-.6-.4-.2-.2-.2-.4-.2-.7,0-.4,.2-.8,.5-1s.7-.4,1.2-.4,.7,0,1,.2c.3,.2,.5,.4,.7,.7l-1,.5c-.1-.3-.4-.5-.7-.5s-.3,0-.4,0c0,0-.1,.2-.1,.3Z"/>
          <path class="uuid-647185f8-5f09-4e47-93c3-dd0401e52fe7" d="M438.3,317.1l-.4-1.1h-2.6l-.4,1.1h-1.3l2.2-6.3h1.5l2.2,6.3h-1.3Zm-2.6-2.3h1.8l-.9-2.6-.9,2.6Z"/>
          <path class="uuid-647185f8-5f09-4e47-93c3-dd0401e52fe7" d="M440.7,312c-.2,0-.4,0-.5-.2-.1-.1-.2-.3-.2-.5s0-.4,.2-.5c.1-.1,.3-.2,.5-.2s.4,0,.5,.2c.1,.1,.2,.3,.2,.5s0,.4-.2,.5c-.1,.1-.3,.2-.5,.2Zm-.6,5v-4.5h1.2v4.5h-1.2Z"/>
          <path class="uuid-647185f8-5f09-4e47-93c3-dd0401e52fe7" d="M443.5,313.3c.1-.3,.3-.5,.5-.6s.5-.2,.8-.2v1.3c-.4,0-.7,0-.9,.2-.3,.2-.4,.5-.4,.9v2.2h-1.2v-4.5h1.2v.8Z"/>
          <path class="uuid-647185f8-5f09-4e47-93c3-dd0401e52fe7" d="M446.5,315.3c.2,.6,.6,.8,1.3,.8s.8-.2,1-.5l.9,.5c-.4,.6-1.1,1-2,1s-1.3-.2-1.8-.7c-.4-.5-.7-1-.7-1.7s.2-1.2,.7-1.7,1-.7,1.7-.7,1.2,.2,1.6,.7c.4,.5,.6,1,.6,1.7s0,.3,0,.5h-3.4Zm0-.9h2.3c0-.3-.2-.5-.4-.7-.2-.1-.4-.2-.7-.2s-.6,0-.8,.2c-.2,.2-.3,.4-.4,.7Z"/>
          <path class="uuid-647185f8-5f09-4e47-93c3-dd0401e52fe7" d="M451.8,313.8c0,.1,0,.2,.2,.3,.2,0,.4,.1,.6,.2,.2,0,.5,.1,.7,.2,.2,0,.4,.2,.6,.4s.2,.5,.2,.8c0,.5-.2,.8-.5,1.1-.3,.2-.8,.4-1.3,.4-.9,0-1.6-.4-1.9-1.1l1-.6c.1,.4,.4,.6,.9,.6s.6-.1,.6-.4,0-.2-.2-.3c-.2,0-.4-.1-.6-.2-.2,0-.5-.1-.7-.2-.2,0-.4-.2-.6-.4-.2-.2-.2-.4-.2-.7,0-.4,.2-.8,.5-1s.7-.4,1.2-.4,.7,0,1,.2c.3,.2,.5,.4,.7,.7l-1,.5c-.1-.3-.4-.5-.7-.5s-.3,0-.4,0c0,0-.1,.2-.1,.3Z"/>
        </g>
      </g>
    </g>
  </g>
</svg>