<?xml version="1.0" encoding="UTF-8"?>
<svg id="uuid-b47124ea-6364-404d-a6a8-fb5e1f2d0d28" data-name="Layer 2" xmlns="http://www.w3.org/2000/svg" width="117.7" height="132.7" viewBox="0 0 117.7 132.7">
  <defs>
    <style>
      .uuid-e063e08f-84e5-418b-aff3-6890cadd6bac {
        fill: #fff;
      }

      .uuid-172de7dd-28cb-48ca-ab6f-6298552afffe {
        fill: none;
        stroke: #fff;
        stroke-linejoin: round;
        stroke-width: 7.5px;
      }
    </style>
  </defs>
  <g id="uuid-2d9d71a7-0649-48b2-9f6b-b3c0ce20369f" data-name="Capa 1">
    <g>
      <path class="uuid-172de7dd-28cb-48ca-ab6f-6298552afffe" d="M101.4,90.5L71.5,6.1c-1-2.7-4.7-3.1-6.2-.7-.9,1.4-1.7,2.6-2.9,3.3-2.9,1.6-8.1,0-10.6,2-2.6,2.1-1.8,7.5-4,10-2.1,2.5-8.2,2.4-9.3,5.5"/>
      <path class="uuid-e063e08f-84e5-418b-aff3-6890cadd6bac" d="M27.2,22.5c.9,0,1.8,.3,2.6,1.1L109.1,102.9c2.2,2.2,.9,5.9-2.2,6.2-1.7,.2-3.3,.5-4.5,1.3-2.9,2-3.6,7.8-6.7,9.2-.6,.3-1.3,.4-2,.4-2.5,0-5.5-1.3-8-1.3s-.9,0-1.3,.2c-3.4,.9-6,6.1-9.5,6.4-.1,0-.2,0-.3,0-3.4,0-6.7-4.3-10.1-4.6-.1,0-.3,0-.4,0-3,0-6.6,2.9-9.6,2.9s-.7,0-1.1-.1c-3.3-.9-5-6.4-8.2-7.9-.9-.4-1.9-.5-3-.5s-3.1,.2-4.5,.2-2.7-.2-3.8-.9c-2.8-2-2.5-7.7-5-10.3s-8.3-2.2-10.3-5c-2-2.9,.2-8.2-1.2-11.3-1.5-3.2-7-4.9-7.9-8.2-.9-3.4,3-7.6,2.7-11.1-.3-3.5-4.9-7-4.6-10.4,.3-3.5,5.5-6.1,6.4-9.5,.9-3.3-2.3-8.2-.8-11.4,1.5-3.1,7.2-3.8,9.2-6.7,.8-1.1,1.1-2.8,1.3-4.5,.2-2,1.9-3.3,3.7-3.3m0-7.5c-5.7,0-10.5,4.3-11.1,9.9,0,.4,0,.7-.1,.9-.4,.2-1,.5-1.5,.8-2.7,1.3-6.3,3.1-8.2,7.2-1.9,4.1-.9,8.1-.2,11,.1,.5,.3,1.1,.4,1.6-.3,.4-.8,.9-1.1,1.2C3.3,49.7,.4,52.7,0,57.2c-.4,4.5,1.9,7.9,3.5,10.4,.3,.4,.6,.9,.9,1.4-.2,.5-.4,1.1-.6,1.5-1.2,2.7-2.9,6.5-1.7,10.9,1.2,4.3,4.4,6.7,6.9,8.5,.4,.3,.9,.7,1.3,1,0,.5,0,1.1,0,1.6-.2,3-.5,7.1,2.1,10.8,2.6,3.6,6.5,4.8,9.3,5.6,.5,.1,1.2,.3,1.7,.5,.2,.5,.4,1.2,.5,1.7,.8,2.9,2,6.8,5.6,9.3,3.2,2.3,6.9,2.3,8.1,2.3s1.9,0,2.8-.1c.6,0,1.1,0,1.6,0,.3,.4,.7,.9,1,1.3,1.8,2.4,4.2,5.7,8.5,6.9,1,.3,2,.4,3,.4,3.1,0,5.7-1.2,7.8-2.1,.4-.2,1-.5,1.5-.6,.4,.3,1,.6,1.4,.9,2.3,1.5,5.4,3.6,9.4,3.6s.7,0,1,0c4.5-.4,7.4-3.2,9.6-5.3,.4-.3,.8-.8,1.2-1.1,.5,0,1.1,.2,1.6,.4,1.6,.4,3.6,.9,5.8,.9s3.6-.4,5.2-1.1c4-1.9,5.9-5.5,7.2-8.2,.2-.4,.5-1,.8-1.5,.2,0,.5,0,.9-.1,4.3-.5,7.9-3.3,9.3-7.4,1.4-4.1,.4-8.5-2.7-11.6L35.1,18.3c-2.1-2.1-4.9-3.3-7.9-3.3h0Z"/>
    </g>
  </g>
</svg>